<svg xmlns="http://www.w3.org/2000/svg" xmlns:xlink="http://www.w3.org/1999/xlink" width="1920" height="1014" viewBox="0 0 1920 1014">
  <defs>
    <clipPath id="clip-path">
      <rect id="Rectangle_180" data-name="Rectangle 180" width="1920" height="1014" fill="#f7a31f"/>
    </clipPath>
    <clipPath id="clip-path-2">
      <rect id="Rectangle_173" data-name="Rectangle 173" width="2111.485" height="1140.371" fill="none"/>
    </clipPath>
  </defs>
  <g id="Mask_Group_46" data-name="Mask Group 46" clip-path="url(#clip-path)">
    <g id="Group_66" data-name="Group 66" transform="matrix(0.966, -0.259, 0.259, 0.966, 64.117, 344.885)">
      <g id="Group_57" data-name="Group 57">
        <g id="Group_56" data-name="Group 56" clip-path="url(#clip-path-2)">
          <path id="Path_20" data-name="Path 20" d="M2056.862,145.147s-434.9-235.3-643.766-70.527c-235,185.387-15.851,476.074-266.593,614.6C836.468,860.5,490.44,339.917,157.154,564.284c-284.362,191.43-17.772,537.345-17.772,537.345l1932.511,13.443Z" transform="translate(39.595 25.298)" fill="#f05928"/>
        </g>
      </g>
      <g id="Group_59" data-name="Group 59">
        <g id="Group_58" data-name="Group 58" clip-path="url(#clip-path-2)">
          <path id="Path_21" data-name="Path 21" d="M2028.291,130.707C1928.176,82.123,1589.768-64.758,1413.1,74.62c-235,185.387-15.851,476.074-266.593,614.6C836.468,860.5,490.44,339.919,157.154,564.284c-236.985,159.539-91.31,426.373-36.192,510.855" transform="translate(39.595 25.299)" fill="none" stroke="#fff" stroke-linecap="round" stroke-width="4"/>
          <path id="Path_22" data-name="Path 22" d="M45.86,695.508c-57.771-110.2-61.26-237.455,6.253-341.221,66.214-101.765,165.881-165.025,297.859-164.124" transform="translate(30.399 324.189)" fill="none" stroke="#fff" stroke-linecap="round" stroke-width="4"/>
          <path id="Path_23" data-name="Path 23" d="M390.722,373.262c13.727,3.932,102.594,27.757,187.6-28.212,74.9-49.311,94.815-126.341,98.736-143.07" transform="translate(600.827 326.722)" fill="none" stroke="#fff" stroke-linecap="round" stroke-width="4"/>
          <path id="Path_24" data-name="Path 24" d="M532.669,142.444c13.164-30.226,39.3-69.044,90.839-100.083C696.746-1.744,768.327.726,795.31,3.069" transform="translate(832.201 23.582)" fill="none" stroke="#fff" stroke-linecap="round" stroke-width="4"/>
        </g>
      </g>
    </g>
  </g>
</svg>
