<?xml version="1.0" encoding="utf-8"?>
<!-- Generator: Adobe Illustrator 27.0.0, SVG Export Plug-In . SVG Version: 6.00 Build 0)  -->
<svg version="1.1" id="Layer_1" xmlns="http://www.w3.org/2000/svg" xmlns:xlink="http://www.w3.org/1999/xlink" x="0px" y="0px"
	 viewBox="0 0 100 100" style="enable-background:new 0 0 100 100;" xml:space="preserve">
<style type="text/css">
	.st0{fill:#FFFFFF;}
</style>
<path class="st0" d="M72.96,10.95H27.02c-8.88,0-16.08,7.2-16.08,16.08v45.95c0,8.88,7.2,16.08,16.08,16.08h45.94
	c8.89,0,16.09-7.2,16.09-16.08V27.03C89.06,18.15,81.86,10.95,72.96,10.95z M62.89,54.64h-9.07v23.84H42.87V54.64h-9.1v-9.66h9.1
	v-3.53c0-13.06,5.44-19.92,16.99-19.92c3.53,0,4.42,0.57,6.36,1.03v9.56c-2.17-0.38-2.78-0.58-5.04-0.58c-2.68,0-4.1,0.75-5.4,2.24
	c-1.3,1.5-1.95,4.1-1.95,7.79v3.41h12.4L62.89,54.64z"/>
</svg>
