<?xml version="1.0" encoding="utf-8"?>
<!-- Generator: Adobe Illustrator 27.0.0, SVG Export Plug-In . SVG Version: 6.00 Build 0)  -->
<svg version="1.1" id="Layer_1" xmlns="http://www.w3.org/2000/svg" xmlns:xlink="http://www.w3.org/1999/xlink" x="0px" y="0px"
	 viewBox="0 0 100 100" style="enable-background:new 0 0 100 100;" xml:space="preserve">
<style type="text/css">
	.st0{fill:#FFFFFF;}
</style>
<g>
	<path class="st0" d="M58.36,50.04c0,4.71-3.83,8.54-8.53,8.54s-8.53-3.83-8.53-8.54c0-4.71,3.82-8.53,8.53-8.53
		C54.54,41.51,58.36,45.33,58.36,50.04z"/>
	<path class="st0" d="M69.79,34.95c-0.91-2.25-2.63-3.98-4.87-4.87c-3.36-1.32-11.37-1.02-15.09-1.02c-3.72,0-11.72-0.31-15.09,1.02
		c-2.25,0.91-3.98,2.63-4.87,4.87c-1.32,3.36-1.03,11.37-1.03,15.09c0,3.73-0.31,11.72,1.03,15.09c0.9,2.25,2.63,3.98,4.87,4.87
		c3.36,1.32,11.37,1.03,15.09,1.03c3.72,0,11.72,0.31,15.09-1.03c2.25-0.9,3.98-2.63,4.87-4.87c1.33-3.36,1.03-11.36,1.03-15.09
		C70.83,46.32,71.12,38.32,69.79,34.95z M49.84,63.17c-7.27,0-13.13-5.86-13.13-13.13c0-7.26,5.86-13.12,13.13-13.12
		c7.27,0,13.13,5.86,13.13,13.12C62.97,57.3,57.1,63.17,49.84,63.17z M63.49,39.43c-1.7,0-3.06-1.37-3.06-3.06s1.37-3.06,3.06-3.06
		s3.06,1.37,3.06,3.06C66.55,38.08,65.18,39.43,63.49,39.43z"/>
	<path class="st0" d="M72.97,10.95H27.03c-8.88,0-16.08,7.2-16.08,16.08v45.95c0,8.88,7.2,16.08,16.08,16.08h45.95
		c8.88,0,16.08-7.2,16.08-16.08V27.03C89.05,18.15,81.85,10.95,72.97,10.95z M75.26,60.6c-0.21,4.1-1.14,7.73-4.14,10.72
		c-2.99,3.01-6.62,3.95-10.72,4.14c-4.23,0.24-16.9,0.24-21.13,0c-4.1-0.21-7.72-1.14-10.73-4.14c-3-2.99-3.94-6.62-4.13-10.72
		c-0.24-4.23-0.24-16.9,0-21.13c0.2-4.1,1.13-7.73,4.13-10.72c3.01-3,6.64-3.93,10.73-4.13c4.23-0.24,16.9-0.24,21.13,0
		c4.1,0.21,7.73,1.15,10.72,4.14c3.01,2.99,3.94,6.62,4.14,10.73C75.49,43.71,75.49,56.36,75.26,60.6z"/>
</g>
</svg>
