<svg class="quote-illustration" xmlns="http://www.w3.org/2000/svg" xmlns:xlink="http://www.w3.org/1999/xlink" width="240.269" height="580.292" viewBox="0 0 240.269 580.292">
  <defs>
    <clipPath id="clip-path">
      <rect id="Rectangle_251" data-name="Rectangle 251" width="168.202" height="385.253" fill="none"/>
    </clipPath>
    <clipPath id="clip-path-2">
      <rect id="Rectangle_252" data-name="Rectangle 252" width="30.569" height="12.6" fill="none"/>
    </clipPath>
    <clipPath id="clip-path-3">
      <rect id="Rectangle_253" data-name="Rectangle 253" width="37.029" height="31.965" fill="none"/>
    </clipPath>
  </defs>
  <g id="Group_847" data-name="Group 847" transform="translate(-262.44 -313.988)">
    <g id="Group_837" data-name="Group 837" transform="translate(280.404 509.028)">
      <g id="Group_836" data-name="Group 836" clip-path="url(#clip-path)">
        <path id="Path_8435" data-name="Path 8435" d="M0,581.669c0,11.6,37.653,21,84.1,21s84.1-9.4,84.1-21-37.653-21-84.1-21-84.1,9.4-84.1,21" transform="translate(0 -217.42)" fill="#f37923"/>
        <path id="Path_8436" data-name="Path 8436" d="M69.351,560.584V550.75h21.6v5.54s-5.531,9.091-7.315,10.161-13.024,1.071-13.381,0-.9-5.867-.9-5.867" transform="translate(-26.894 -213.574)" fill="#888d91"/>
        <path id="Path_8437" data-name="Path 8437" d="M75.453,224.112a4.923,4.923,0,0,0,2.544,1.2,115.646,115.646,0,0,0,13.835,1.273,6.785,6.785,0,0,0,2.448.509c1.673.021,3.341.16,5.01.272a12.458,12.458,0,0,0,5.218-.736q1.343,0,2.685,0a6.685,6.685,0,0,0,3.471-.9,44.813,44.813,0,0,0,5.184-.414,23.629,23.629,0,0,0,5.327-1.73,6.977,6.977,0,0,0,2.392-.449,18.8,18.8,0,0,0,2.92-.321c.2-.057.4-.129.591-.2h.1a6.786,6.786,0,0,0,2.487-.478V425.6H103.133V253.445a5.115,5.115,0,0,0-10.23,0V425.6H66.374V222.17a33.223,33.223,0,0,0,9.079,1.942" transform="translate(-25.739 -86.142)" fill="#353b45"/>
        <path id="Path_8438" data-name="Path 8438" d="M90.448,549.359s3.477,1.657,3.6,5.158c.32,9.12-34,7.688-34-1.46,0-3.6,3.877-3.96,3.877-3.96" transform="translate(-23.285 -212.934)" fill="#353b45"/>
        <path id="Path_8439" data-name="Path 8439" d="M150.346,549.307a6.628,6.628,0,0,1,3.368,5.21c.32,9.12-34,7.689-34-1.459,0-3.6,3.876-3.959,3.876-3.959" transform="translate(-46.423 -212.934)" fill="#353b45"/>
        <path id="Path_8440" data-name="Path 8440" d="M82.165,244.987c-6.285,0-6.084,15.147-6.084,15.147V434.656a15.414,15.414,0,0,1-9.707-3.479V242.4s15.653.624,15.791,1.16a4.523,4.523,0,0,1,0,1.423" transform="translate(-25.739 -94.001)" fill="#272d34"/>
        <path id="Path_8441" data-name="Path 8441" d="M118.067,264.917c8.726,2.23,15.327,6.023,15.327,15.657V443.388s-9.457-1.518-10.215-3.48l.358-167.721a7.571,7.571,0,0,0-5.469-7.27" transform="translate(-45.785 -102.732)" fill="#272d34"/>
        <path id="Path_8442" data-name="Path 8442" d="M124.21,562.4c2.843,1.973,8.582,5.061,13.693,2.35a8.064,8.064,0,0,0,1.145.176,13.235,13.235,0,0,0,2.437-.058q.95-.125,1.9-.257c.051,0,.135-.01.253-.02a19.264,19.264,0,0,0,2.148-.155c-.564.058,4.471-.7,2.364-.536a7.119,7.119,0,0,0,6.1-3.918l17.127,8.47h.006l2.363,1.167a14.429,14.429,0,0,1,8.03,12.938v3.752a1.35,1.35,0,0,1-.916,1.278c-2.83.963-12.144,3.525-27.043,1.616-1.214-.157-2.41-.327-3.577-.519a122.192,122.192,0,0,1-27-7.5,1.349,1.349,0,0,1-.823-1.243v-16.6a1.142,1.142,0,0,1,1.8-.934" transform="translate(-47.47 -217.155)" fill="#f05928"/>
        <path id="Path_8443" data-name="Path 8443" d="M167.862,594.049c1.167.193,2.364.362,3.577.519,14.9,1.908,24.212-.653,27.043-1.616a1.35,1.35,0,0,0,.916-1.278v-3.752a14.43,14.43,0,0,0-8.03-12.938L189,573.817h-3.262a17.689,17.689,0,0,0-17.694,17.688v2.042s-.076.181-.187.5" transform="translate(-65.095 -222.52)" fill="#fff"/>
        <path id="Path_8444" data-name="Path 8444" d="M63.981,564.408v16.6a1.348,1.348,0,0,0,.823,1.243,122.146,122.146,0,0,0,27,7.505c1.167.192,2.364.362,3.578.519,14.9,1.908,24.212-.653,27.043-1.616a1.35,1.35,0,0,0,.916-1.278V583.63a14.413,14.413,0,0,0-8.03-12.938l-2.364-1.167h-.006l-17.559-8.684s-.2-.07-.555-.175a6.01,6.01,0,0,1-2.171,1.99,22.29,22.29,0,0,1-10.569,2.492,6.436,6.436,0,0,1-1.336-.14c-5.4,4.056-11.893.607-14.974-1.535a1.142,1.142,0,0,0-1.8.934" transform="translate(-24.811 -217.42)" fill="#f05928"/>
        <path id="Path_8445" data-name="Path 8445" d="M109.431,595.368c1.167.193,2.364.362,3.577.519,14.9,1.908,24.212-.653,27.043-1.616a1.35,1.35,0,0,0,.916-1.278v-3.752a14.418,14.418,0,0,0-8.03-12.938l-2.364-1.167h-3.262a17.678,17.678,0,0,0-17.426,14.653,16.847,16.847,0,0,0-.268,3.035v2.042s-.076.181-.187.5" transform="translate(-42.436 -223.031)" fill="#fff"/>
        <path id="Path_8446" data-name="Path 8446" d="M126.468,594.489a55.89,55.89,0,0,0,13.615-4.8,14.505,14.505,0,0,1,.962,5.193v3.752a1.35,1.35,0,0,1-.916,1.278c-2.83.963-12.144,3.525-27.043,1.616-1.171-.152-2.325-.316-3.452-.5l.422-5.592a55.326,55.326,0,0,0,16.412-.952" transform="translate(-42.515 -228.676)" fill="#888d91"/>
        <path id="Path_8447" data-name="Path 8447" d="M92.261,593.095l.092.007-.422,5.591-.125-.019a122.148,122.148,0,0,1-27-7.505,1.348,1.348,0,0,1-.823-1.243v-6.268a69.1,69.1,0,0,0,28.28,9.437" transform="translate(-24.811 -226.336)" fill="#bb2f26"/>
        <path id="Path_8448" data-name="Path 8448" d="M183.757,594.489a55.891,55.891,0,0,0,13.615-4.8,14.505,14.505,0,0,1,.962,5.193v3.752a1.35,1.35,0,0,1-.916,1.278c-2.83.963-12.144,3.525-27.043,1.616-1.171-.152-2.325-.316-3.452-.5l.422-5.592a55.326,55.326,0,0,0,16.412-.952" transform="translate(-64.731 -228.676)" fill="#888d91"/>
        <path id="Path_8449" data-name="Path 8449" d="M160.416,602.768q.121-.9.243-1.809a6.757,6.757,0,0,0-.642-2.858c1.481.251,3,.452,4.559.594l.092.007-.422,5.592-.125-.02q-2.044-.324-3.984-.7a7.115,7.115,0,0,0,.28-.8" transform="translate(-62.053 -231.937)" fill="#bb2f26"/>
        <path id="Path_8450" data-name="Path 8450" d="M109.707,440.175V270.035a5.115,5.115,0,1,1,10.23,0v170.14" transform="translate(-42.543 -102.732)" fill="none" stroke="#23282e" stroke-linecap="round" stroke-width="3"/>
        <line id="Line_47" data-name="Line 47" y2="201.656" transform="translate(40.635 135.787)" fill="none" stroke="#23282e" stroke-linecap="round" stroke-width="3"/>
        <line id="Line_48" data-name="Line 48" y1="201.6" transform="translate(103.923 136.077)" fill="none" stroke="#23282e" stroke-linecap="round" stroke-width="3"/>
        <line id="Line_49" data-name="Line 49" y1="1.782" transform="translate(103.923 337.678)" fill="none" stroke="#23282e" stroke-linecap="round" stroke-width="3"/>
        <path id="Path_8451" data-name="Path 8451" d="M90.448,549.359s3.477,1.657,3.6,5.158c.32,9.12-34,7.688-34-1.46,0-3.6,3.877-3.96,3.877-3.96" transform="translate(-23.285 -212.934)" fill="none" stroke="#23282e" stroke-linecap="round" stroke-width="3"/>
        <path id="Path_8452" data-name="Path 8452" d="M91.855,554.484s-8.832,3.758-17.931,0" transform="translate(-28.667 -215.022)" fill="none" stroke="#23282e" stroke-linecap="round" stroke-width="3"/>
        <path id="Path_8453" data-name="Path 8453" d="M150.346,549.307a6.628,6.628,0,0,1,3.368,5.21c.32,9.12-34,7.689-34-1.459,0-3.6,3.876-3.959,3.876-3.959" transform="translate(-46.423 -212.934)" fill="none" stroke="#23282e" stroke-linecap="round" stroke-width="3"/>
        <path id="Path_8454" data-name="Path 8454" d="M151.522,554.484s-8.832,3.758-17.931,0" transform="translate(-51.805 -215.022)" fill="none" stroke="#23282e" stroke-linecap="round" stroke-width="3"/>
        <path id="Path_8455" data-name="Path 8455" d="M139.525,567.122c-4.207,1.937-8.763.132-11.742-1.629" transform="translate(-49.553 -219.292)" fill="none" stroke="#23282e" stroke-linecap="round" stroke-width="3"/>
        <path id="Path_8456" data-name="Path 8456" d="M160.943,588.02q2.057.4,4.237.75c1.167.193,2.363.362,3.577.519,14.9,1.908,24.212-.653,27.043-1.616a1.35,1.35,0,0,0,.916-1.278v-3.752a14.429,14.429,0,0,0-8.03-12.938l-2.363-1.167h-.006L169.463,560.2" transform="translate(-62.412 -217.241)" fill="none" stroke="#23282e" stroke-linecap="round" stroke-width="3"/>
        <path id="Path_8457" data-name="Path 8457" d="M167.862,594.049c1.167.193,2.364.362,3.577.519,14.9,1.908,24.212-.653,27.043-1.616a1.35,1.35,0,0,0,.916-1.278v-3.752a14.43,14.43,0,0,0-8.03-12.938L189,573.817h-3.262a17.689,17.689,0,0,0-17.694,17.688v2.042S167.973,593.729,167.862,594.049Z" transform="translate(-65.095 -222.52)" fill="none" stroke="#23282e" stroke-linecap="round" stroke-width="3"/>
        <path id="Path_8458" data-name="Path 8458" d="M168.165,593.543v-2.037a17.693,17.693,0,0,1,17.694-17.693h3.255" transform="translate(-65.212 -222.518)" fill="none" stroke="#23282e" stroke-linecap="round" stroke-width="3"/>
        <path id="Path_8459" data-name="Path 8459" d="M179.37,567.324a16.166,16.166,0,0,0-14.852,6.377" transform="translate(-63.798 -219.956)" fill="none" stroke="#23282e" stroke-linecap="round" stroke-width="3"/>
        <path id="Path_8460" data-name="Path 8460" d="M156.033,568.193a16.876,16.876,0,0,0-2.227,2.44" transform="translate(-59.644 -220.339)" fill="none" stroke="#23282e" stroke-linecap="round" stroke-width="3"/>
        <path id="Path_8461" data-name="Path 8461" d="M176.713,561.687a12.555,12.555,0,0,0-2.137-.114" transform="translate(-67.699 -217.77)" fill="none" stroke="#23282e" stroke-linecap="round" stroke-width="3"/>
        <path id="Path_8462" data-name="Path 8462" d="M80.543,565.278c-5.357,3.816-11.721.419-14.764-1.693a1.142,1.142,0,0,0-1.8.934v16.6a1.349,1.349,0,0,0,.823,1.243,122.193,122.193,0,0,0,27,7.5c1.167.192,2.364.362,3.578.519,14.9,1.908,24.212-.653,27.043-1.616a1.35,1.35,0,0,0,.916-1.278v-3.752a14.429,14.429,0,0,0-8.03-12.938l-2.364-1.167h-.006l-17.559-8.684" transform="translate(-24.811 -217.531)" fill="none" stroke="#23282e" stroke-linecap="round" stroke-width="3"/>
        <path id="Path_8463" data-name="Path 8463" d="M109.431,595.368c1.167.193,2.364.362,3.577.519,14.9,1.908,24.212-.653,27.043-1.616a1.35,1.35,0,0,0,.916-1.278v-3.752a14.43,14.43,0,0,0-8.03-12.938l-2.364-1.167h-3.262a17.689,17.689,0,0,0-17.694,17.688v2.042S109.542,595.048,109.431,595.368Z" transform="translate(-42.436 -223.031)" fill="none" stroke="#23282e" stroke-linecap="round" stroke-width="3"/>
        <path id="Path_8464" data-name="Path 8464" d="M109.734,594.863v-2.037a17.693,17.693,0,0,1,17.694-17.693h3.255" transform="translate(-42.554 -223.03)" fill="none" stroke="#23282e" stroke-linecap="round" stroke-width="3"/>
        <path id="Path_8465" data-name="Path 8465" d="M120.938,568.644a16.166,16.166,0,0,0-14.852,6.377" transform="translate(-41.139 -220.468)" fill="none" stroke="#23282e" stroke-linecap="round" stroke-width="3"/>
        <path id="Path_8466" data-name="Path 8466" d="M99.18,567.246a15.5,15.5,0,0,0-3.806,3.827" transform="translate(-36.985 -219.971)" fill="none" stroke="#23282e" stroke-linecap="round" stroke-width="3"/>
        <path id="Path_8467" data-name="Path 8467" d="M132.269,127.925l-.838-89.9c-24.414-8.24-48.059-18.731-72.246-27.628-.036-.013-.062-.032-.1-.046l-.274,133.635s52.624,3.409,72.7-5.095Z" transform="translate(-22.808 -4.013)" fill="#f8a51b"/>
        <path id="Path_8468" data-name="Path 8468" d="M64.014,12.382q-2.079-.783-4.162-1.554L58.817,144.169l9.339.89L66.968,17.19Z" transform="translate(-22.809 -4.199)" fill="#f05928"/>
        <path id="Path_8469" data-name="Path 8469" d="M59.43,1.5c.307,43.519-.907,93.2-.528,137.168a2.4,2.4,0,0,0,2.127,2.369c23.144,2.633,46.854.455,69.553-5.1a2.409,2.409,0,0,0,1.83-2.386c-.311-16.869-.721-36.073-2.016-71.044" transform="translate(-22.813 -0.582)" fill="none" stroke="#23282e" stroke-linecap="round" stroke-width="3"/>
      </g>
    </g>
    <g id="Group_844" data-name="Group 844" transform="translate(9 -5)">
      <path id="Path_8470" data-name="Path 8470" d="M28.56,151.474l-.4-5.755s-2.307-11.291-2.224-11.585-3.357-12.008-3.357-12.008-4-3.07-4.937-4.584-2.631-5.016-2.817-5.5-.975-6.052,1.474-6.888a5.45,5.45,0,0,0,1.532-.727,12.093,12.093,0,0,0,1.389.916,21.431,21.431,0,0,0,2.113.85c.88.34,2.043,2.254,2.043,2.254s2.179,6.283,2.329,6.745.824.314,1.436.189a4.792,4.792,0,0,0,2.168-1.836c0-.35-.891-8.4-.707-9.74s.434-5.5,3.712-8.5,3.236-9,3.236-9,.434-.356,11.075.37S66.3,82.205,66.3,82.205s1.951,6.134,2.669,7.187,2.62,9.7,2.977,10.227,4.142,18.548,3.84,19.637,1.224,8.5,1,12.2-.947,10.847-3.744,13.063-7.6,3.623-8.015,3.812-4.7.406-4.7.406a24.852,24.852,0,0,0-1.624,4.148c.008.651-.041,9.134-.048,10.343l2.176,3.184s-.4,2.415-1.16,2.984-4.265,3.687-5.8,4.491a10.922,10.922,0,0,1-5.889.741,30.061,30.061,0,0,1-6.7-2.352,59.294,59.294,0,0,1-6.77-4.116c-1-.859-3.212-2.882-3.682-3.345s0-.291-.572-.881-1.537-5.5-1.537-5.5Z" transform="translate(239.227 343.469) rotate(-16)" fill="#fff"/>
      <path id="Path_8471" data-name="Path 8471" d="M12.29,83.1A39.534,39.534,0,0,0,16.2,78.485c.2-.442,2.216-.918.376-.9s-3.737.564-4.429.575-1.193.621-1.34-.007-.68-1.245-.163-1.958a21.885,21.885,0,0,1,2.44-2.875c.762-.667.931-1.8,1.84-1.893s1.622-1.377,2.221-1.1S12.669,65.2,13.79,64.7s6.592.905,6.5.313-1.959-5.518-1.959-5.518l2.628-.032-.485-2.1s4.369,3.251,4.505,2.963,2.71-9.157,16.652-8.574c0,0,5.748-3.114,9.143-3.119L47.748,53.66s7.212-2.277,10.433.027a22.683,22.683,0,0,1,4.51,3.826c.11.19,5.746,2.366,6.079,2.644s1.207,2,1.649,2.254,1.244.688.762,1.3S64.5,69.536,64.5,69.536s-9.036,5.2-19.676,4.469-11.075-.371-11.075-.371.042,6-3.236,9-3.528,7.163-3.712,8.5.7,9.39.707,9.74a4.8,4.8,0,0,1-2.168,1.836c-.612.125-1.286.274-1.436-.189s-2.329-6.745-2.329-6.745-1.163-1.914-2.043-2.254a21.433,21.433,0,0,1-2.113-.85,12.093,12.093,0,0,1-1.389-.916c.576-.443.293-.727.293-.727a29.624,29.624,0,0,0-1.362-3.01c-.3-.36-2.081-1.155-2.333-1.576a9.085,9.085,0,0,0-1.874-1.357A7.6,7.6,0,0,1,12.29,83.1" transform="translate(244.354 355.541) rotate(-16)" fill="#272d34"/>
      <path id="Path_8472" data-name="Path 8472" d="M82.408,142.433c-4.265-1.949-6.458-2.1-9.205-1.012a24.657,24.657,0,0,0-7.91,5.222c-2.512,2.4-5.492,5.982-6.884,6.743s-3.66,1.666-4.845,1.5-4.519-.514-6.6-2.023a19.292,19.292,0,0,1-4.751-5.2c-.85-1.435-3.88-5.6-3.973-6.041a27.362,27.362,0,0,0-1.454-4.276,3.078,3.078,0,0,0-1.805-.723,10.606,10.606,0,0,0-1.951.191c-.552.067-.9,2.779-1.009,4.971s1.987,4.883,2.345,5.536S40.03,159,41.205,161.921s2.829,5.618,3.975,6.217,3.186,2.546,5.293,2.827S71.862,169.682,72.1,169.6s3.119-.27,4.809-1.469,4.279-4.739,4.326-5.471,1.984-8.262,2.175-8.834-.485-8.938-.531-9.238-.469-2.157-.469-2.157" transform="translate(226.901 325.05) rotate(-16)" fill="#272d34"/>
      <path id="Path_8473" data-name="Path 8473" d="M101.143,161.682c-3.622-2.407-4.063-2.631-5.727-2.561s-4.331.54-4.763,1.027-1.524.763.242,1.881,3.057,3.117,5.628,3.568,3.977.842,4.978.3,1.516-1.428,1.028-1.9a13.563,13.563,0,0,1-1.386-2.309" transform="translate(202.913 322.857) rotate(-16)" fill="#f05928"/>
      <path id="Path_8474" data-name="Path 8474" d="M101.481,150.5c-.467,1.276-.957,3.736-1.256,4.572s-1.2,1.931-2.353,1.248-1.947-1.591-3.649-1.044-2.62.733-2.621.6a11.15,11.15,0,0,1,1.632-2.736c.95-1.194,1.033-1.5,2.123-2.041a12.7,12.7,0,0,1,3.8-.943,5.84,5.84,0,0,1,2.326.343" transform="translate(203.246 326.383) rotate(-16)" fill="#fff"/>
      <path id="Path_8475" data-name="Path 8475" d="M56.3,21.848a.253.253,0,0,0,.351-.32,8.349,8.349,0,0,1-.486-4.638,2.177,2.177,0,0,1,.054-.258,1.406,1.406,0,0,1,2.658-.176c.531,1.317,1.445,2.441,2.98,1.873a1.4,1.4,0,0,1,1.764,1.807,3.48,3.48,0,0,1-.77,1.2.252.252,0,0,0,.257.421c2.277-.8,6.487-3.444,2.986-11.776a.255.255,0,0,0-.492.075c-.089,1.222-.416,3.009-1.614,3.086-2.543.169-2.04-5.18-3.741-8.811a5.256,5.256,0,0,0-2.931-2.91.257.257,0,0,0-.334.308c.353,1.2,1.017,4.464-1.4,6.225-4.694,3.428-5.429,10.774.714,13.892" transform="translate(233.952 377.577) rotate(-16)" fill="#f05928"/>
      <path id="Path_8476" data-name="Path 8476" d="M56.3,21.848a.254.254,0,0,0,.351-.32,8.349,8.349,0,0,1-.486-4.638,4.806,4.806,0,0,1-.47-3.307c.641-2.427,3.411-2.765,4.47-5.317a5.883,5.883,0,0,0,.084-3.933,5.256,5.256,0,0,0-2.931-2.91.257.257,0,0,0-.334.308c.353,1.2,1.017,4.464-1.4,6.225-4.694,3.428-5.43,10.774.713,13.892" transform="translate(233.952 377.577) rotate(-16)" fill="#f8a51b"/>
      <path id="Path_8477" data-name="Path 8477" d="M11.6,186.32l5.968-2.393,6.147-3.245s1.537,5.506,2.932,6.977c.114.12,8.588,7.16,9.268,7.252s7.838,2.61,8.531,2.6a51.823,51.823,0,0,0,6.824-1.623c.262-.232,4.505-4.826,4.334-5.193s.448-1.647.448-1.647l-2.4-3.973a15.64,15.64,0,0,1,.906-2.374c.124.059,10.891,3.52,10.891,3.52l4.713-7.523,4.391-8.644s4.939-10.729,5.027-10.933,4.343-10.642,4.453-10.932,2.576-7.065,2.576-7.065,1.538.186,2.291.271,5.815,2,5.927,2.8,2.317,3.128,2.317,3.128-1.711,3.19-1.634,4.174-2.884,17-3.721,18.775-5.638,18.818-5.638,18.818l-2.821,6.832,6.371,3.01,16.732,5.589a18.222,18.222,0,0,0,2.962.425,17.567,17.567,0,0,0,3.332-1.611c.19-.206,2.316-2.847,2.516-3.1s9.509-13.428,9.509-13.428l6.488-10.894s9.134-19.837,9.365-19.819,4.256-11.368,4.343-11.7,1.167-4.795,1.167-4.795l13.868,1s1.493,1.807,1.444,2.2-1.932,7.171-2.1,7.992-2.612,9.05-2.41,9.3-3.419,12.6-4.318,15.142-6.707,18.846-7.228,19.045-8.414,17.073-8.974,17.414-7.629,12-8.106,12.714-5.543,6.785-7.531,7.184-6.38,1.887-8.135,1.871-15.475-3.247-16.359-3.529-8.457-3.183-8.731-3.177-7.081-2.555-7.081-2.555l2.715,10.792-.706,1.659c-3.465-.776-14.13-3.165-15.063-3.351a9.827,9.827,0,0,0-3.742-.04c-.323.253-8.826,13.516-20.362,10.607s-24.175-14.879-25.3-15.717a32.176,32.176,0,0,0-4.221-2.489A55.385,55.385,0,0,1,4.334,211.8a1.384,1.384,0,0,0-.6-.662L2.945,208.4a19.079,19.079,0,0,1,.522-15.079c3.79-7.866,8.134-7.006,8.134-7.006" transform="translate(237.908 320.693) rotate(-16)" fill="#f8a51b"/>
      <path id="Path_8478" data-name="Path 8478" d="M100.128,113.713c.665-.261,109.777,11.9,109.777,11.9l2.613,1.428s-3.93-4.235-4.3-5.2a37.27,37.27,0,0,1-1.307-4.683c-.127-.866-.337-5.773-.3-6.3s.834-6.109.689-6.38,3.051-5.945,3.051-5.945l.665-1.919-107.89,6.821s-4.379.022-5.093,3.468,2.1,6.808,2.1,6.808" transform="translate(206.615 347.007) rotate(-16)" fill="#f05928"/>
      <path id="Path_8479" data-name="Path 8479" d="M161.516,98.271c-2.272,1.8-3.573,2.47-4.222,4.67a50.456,50.456,0,0,0-1.808,6.8c-.081,1.317-.053,5.417-.2,6.59a28.227,28.227,0,0,1-2.358,6.567c-1.008,1.878-2.366,3.829-2.675,3.853a20.406,20.406,0,0,1-3.931-2.637c-1.062-.908-3.2-2.644-3.878-2.669s-1.008-1.822-1.131-2.434-1.033-5.724-1.332-6.623S138.25,101.329,138,101.005s1.446-6.218,1.446-6.218,1.287-4.332,1.45-4.548,1.059-1.089,1.747-1.073,3.043.164,3.043.164a11.435,11.435,0,0,1,2.688-1.234,36.093,36.093,0,0,1,4.356,1.783l3.487-.26,3.609,2.473,4.51,2.516,1.382,2.969Z" transform="translate(192.593 354.464) rotate(-16)" fill="#fff"/>
      <path id="Path_8480" data-name="Path 8480" d="M287.575,127.337c-.307-.359-5.976-1.264-5.976-1.264s-4.434-3.976-4.644-4.525-1.468-5.344-1.582-5.533S275.6,108,275.6,108s.995-5.734,1.315-6.281,2.127-5.64,2.714-5.746,1.919-1.776,2.405-2.088a15.179,15.179,0,0,1,2.836-.712l5.009,1.024s-5.029,3.052-5.994,5.238-2.978,9.457-3.086,9.971.76,7.837.916,8.521a55.2,55.2,0,0,0,2.842,5.961,24.883,24.883,0,0,0,3.017,3.449" transform="translate(140.839 367.256) rotate(-16)" fill="#f8a51b"/>
      <path id="Path_8481" data-name="Path 8481" d="M302.4,98.565c-.387-.522-4.133-3.893-5.147-3.842s-4.994.842-6.2,1.793-6.567,6.173-6.129,12.97a82.625,82.625,0,0,0,1.654,12.613,17.522,17.522,0,0,0,3.224,4.07c1.16.819,2.384,2.019,3.61,1.706a15.891,15.891,0,0,0,2.886-.817c.16-.2,2.056-1.2.022-1.481s-4.874-1.015-5.384-1.8-1.289-3.727-1.805-4.784-.512-4.511-.813-5.738-.556-4.464-.16-5.565,2.284-5.119,2.567-5.85a16.5,16.5,0,0,1,3.7-3.657c.732-.4,4.272-.909,5.274-.5a8.765,8.765,0,0,1,2.27,1.791Z" transform="translate(137.113 367.7) rotate(-16)" fill="#f8a51b"/>
      <path id="Path_8482" data-name="Path 8482" d="M306.639,109.9c-.017.467-1.569,14.506-5.563,16.075s-3.29,1.823-5.1.975-4.648-4.631-4.784-4.966a50.4,50.4,0,0,1-.874-6.29c.1-.582,1.28-5.987,1.328-6.574s.51-5.078,2.119-6.368,3.9-3.138,5.114-3.243,5.089,1.226,5.7,2.694,2.055,7.7,2.055,7.7" transform="translate(134.585 366.496) rotate(-16)" fill="#5583f3"/>
      <path id="Path_8483" data-name="Path 8483" d="M299.351,100.7c7.561,10.027,5.264,19.158,1.049,23.57-1.933,2.023-5.145,1.595-5.145,1.595s6.549,2.86,6.763,2.321a53.831,53.831,0,0,1,3.989-4.282s1.515-3.954,1.347-4.429a61.076,61.076,0,0,1,.849-6.409l-.744-6.434-2.4-4.862s-2.226-1.118-2.418-1.142-3.287.073-3.287.073" transform="translate(132.623 366.607) rotate(-16)" fill="#f05928"/>
      <path id="Path_8484" data-name="Path 8484" d="M118.751,264.317s-4.1,11.029-9.826,16.028l-3.39-1.6s6.211-9.218,6.3-9.376,4.172-7.17,4.064-7.631.3-1.471.716-1.487,2.133,4.068,2.133,4.068" transform="translate(186.282 286.825) rotate(-16)" fill="#f05928"/>
      <path id="Path_8485" data-name="Path 8485" d="M77.732,289.378l-3.186-1.505c-5.474,6.578-13.366,12.354-22.294,11.357-10.4-1.162-17.22-9.7-25.66-14.858a1.519,1.519,0,0,1-.695-.827l-1.781-.511-3.466,7.133s15.329,9.88,33.3,13.28,23.779-14.069,23.779-14.069" transform="translate(213.776 269.543) rotate(-16)" fill="#f05928"/>
      <path id="Path_8486" data-name="Path 8486" d="M125.213,246.3l5.364-13.141,2.877.658c-.886,1.78-1.715,3.613-2.46,5.359a23.724,23.724,0,0,0-.209,18.06l2.088,5.26-5.855-2.382-3.295-1.974Z" transform="translate(182.416 298.862) rotate(-16)" fill="#f05928"/>
      <g id="Group_840" data-name="Group 840" transform="translate(313.419 491.575) rotate(-16)" opacity="0.2">
        <g id="Group_839" data-name="Group 839">
          <g id="Group_838" data-name="Group 838" clip-path="url(#clip-path-2)">
            <path id="Path_8487" data-name="Path 8487" d="M68.756,213.882s-4.028,16.964-28.165.62l1.163,1.963s9.743,6.969,10.622,7.339,8.984,5.087,13.546,1.063,5.237-7.012,5.237-7.012Z" transform="translate(-40.591 -213.882)" fill="#272d34"/>
          </g>
        </g>
      </g>
      <g id="Group_843" data-name="Group 843" transform="translate(294.669 453.64) rotate(-16)" opacity="0.2">
        <g id="Group_842" data-name="Group 842">
          <g id="Group_841" data-name="Group 841" clip-path="url(#clip-path-3)">
            <path id="Path_8488" data-name="Path 8488" d="M64.008,177.574l-11.02.263a18.5,18.5,0,0,1-18.2-13.332c-1.749-6-4.031-12.723-6.556-17.36l2.621-1.267s4.612,11.031,5.084,11.966,4.44,9.342,5.321,10.049,5.121,4.05,5.468,4.257,4.521,3.4,7.064,2.77,7.65-.562,8.47-.831a9.419,9.419,0,0,1,3,.148Z" transform="translate(-28.229 -145.876)" fill="#272d34"/>
          </g>
        </g>
      </g>
      <path id="Path_8489" data-name="Path 8489" d="M235.983,136.03s-1.657-3.338-1.809-3.886-10.777-2.445-11.527-2.513S174.093,125,174.093,125l-7.815-.222s.56,3.961.819,3.989l68.885,7.265" transform="translate(178.12 343.817) rotate(-16)" fill="#bc2f13"/>
      <path id="Path_8490" data-name="Path 8490" d="M124.639,124.215l-.972-3.748-25.259-1.881s1.9,3.189,2.331,3.335,23.9,2.293,23.9,2.293" transform="translate(204.081 338.87) rotate(-16)" fill="#bc2f13"/>
      <path id="Path_8491" data-name="Path 8491" d="M281.31,118.454l-5.714,3.828s.945,6.278,1.144,6.9,2.665,5.229,3.312,5.583a34.4,34.4,0,0,0,4.309,1.646c.206-.034,1.96-.714,1.715-.628s-3.607-5.7-3.607-5.7l-.567-5.214Z" transform="translate(138.045 357.859) rotate(-16)" fill="#d87d23"/>
      <path id="Path_8492" data-name="Path 8492" d="M33.874,183.571c.718-14-2.576-24.6-6.043-36.524" transform="translate(227.348 320.717) rotate(-16)" fill="none" stroke="#23282e" stroke-linecap="round" stroke-width="2.809"/>
      <path id="Path_8493" data-name="Path 8493" d="M86.336,205.182c-.957-3.286-.146-9.67,1.471-13.736" transform="translate(200.946 310.376) rotate(-16)" fill="none" stroke="#23282e" stroke-linecap="round" stroke-width="2.809"/>
      <path id="Path_8494" data-name="Path 8494" d="M25.185,133.777s-.857,2.6-3.223,2.624-5.746-4.233-7.9-10.025c-2.31-6.215,4.835-9.829,6.684-3.411" transform="translate(235.585 329.434) rotate(-16)" fill="none" stroke="#23282e" stroke-linecap="round" stroke-width="2.809"/>
      <path id="Path_8495" data-name="Path 8495" d="M31.787,140.978l9.1,20.543a14.569,14.569,0,0,0,13.93,8.655L71,169.5a11.484,11.484,0,0,0,10.633-8.632,42.479,42.479,0,0,0,.872-18.248C68.714,134.2,63.2,154.771,52.822,154.85c-8.809.066-16.928-19.026-16.928-19.026" transform="translate(227.073 325.323) rotate(-16)" fill="none" stroke="#23282e" stroke-linecap="round" stroke-width="2.809"/>
      <path id="Path_8496" data-name="Path 8496" d="M101.111,150.212a9.941,9.941,0,0,0-10.867,7,.993.993,0,0,0,.285,1.043c1.606,1.409,7.183,5.785,12.26,3.563a.356.356,0,0,0,.194-.43,7.492,7.492,0,0,0-3.276-4.247,6.029,6.029,0,0,1,1.6-6.306A.359.359,0,0,0,101.111,150.212Z" transform="translate(203.768 326.229) rotate(-16)" fill="none" stroke="#23282e" stroke-linecap="round" stroke-width="2.809"/>
      <path id="Path_8497" data-name="Path 8497" d="M103.721,98.1a73.292,73.292,0,0,0-5.749-14.953" transform="translate(208.032 352.036) rotate(-16)" fill="none" stroke="#23282e" stroke-linecap="round" stroke-width="2.809"/>
      <path id="Path_8498" data-name="Path 8498" d="M113.42,138.6s-.5-5.631-1.92-13.131" transform="translate(198.465 337.702) rotate(-16)" fill="none" stroke="#23282e" stroke-linecap="round" stroke-width="2.809"/>
      <path id="Path_8499" data-name="Path 8499" d="M22.827,101.44c3.476-.343,5.04,6.43,5.575,9.134a.878.878,0,0,0,1.065.686l2.527-.586a.581.581,0,0,0,.44-.684c-.454-2.214-1.985-10.476-.367-14.045,1.878-4.142,6.408-6.3,6.316-13.835,0,0,28.172,3.99,38.06-10.471a.526.526,0,0,0-.378-.815,17.3,17.3,0,0,0-12.5,3.378" transform="translate(237.372 348.638) rotate(-16)" fill="none" stroke="#23282e" stroke-linecap="round" stroke-width="2.809"/>
      <path id="Path_8500" data-name="Path 8500" d="M98.465,67.773S94.436,60.8,82.252,64.04" transform="translate(216.025 357.796) rotate(-16)" fill="none" stroke="#23282e" stroke-linecap="round" stroke-width="2.809"/>
      <path id="Path_8501" data-name="Path 8501" d="M81.27,57.892s-7.419-9-16.42-3.4a.274.274,0,0,1-.39-.361,11.784,11.784,0,0,1,4.83-5.027.256.256,0,0,0-.1-.492c-2.732.04-9.034.985-13.916,8.18" transform="translate(227.639 360.342) rotate(-16)" fill="none" stroke="#23282e" stroke-linecap="round" stroke-width="2.809"/>
      <path id="Path_8502" data-name="Path 8502" d="M42.37,53.753c-5.645-.362-13.6-.275-17.63,8.52l-4.476-3.507a.393.393,0,0,0-.628.386l.5,2.525L17.5,60.764a.394.394,0,0,0-.469.569L20.329,67l-6.393-.962a.393.393,0,0,0-.386.607l3.958,5.91c-3.806.964-6.442,4.5-7.574,6.313a.807.807,0,0,0,.638,1.235,25.07,25.07,0,0,0,5.768-.568c-.942,2.85-4.258,5.6-6.114,6.958a.558.558,0,0,0,.259,1,6.781,6.781,0,0,1,5.717,6.56" transform="translate(244.049 353.607) rotate(-16)" fill="none" stroke="#23282e" stroke-linecap="round" stroke-width="2.809"/>
      <path id="Path_8503" data-name="Path 8503" d="M99.932,160.543s-6.169-3.519-9.151-.23" transform="translate(202.614 323.024) rotate(-16)" fill="none" stroke="#23282e" stroke-linecap="round" stroke-width="2.809"/>
      <path id="Path_8504" data-name="Path 8504" d="M95.776,117.343c1.851,4.192,5.783,8.428,7.836,10.467a1.228,1.228,0,0,1-.44,2.023,16.511,16.511,0,0,1-5.193,1.087" transform="translate(205.195 339.052) rotate(-16)" fill="none" stroke="#23282e" stroke-linecap="round" stroke-width="2.809"/>
      <path id="Path_8505" data-name="Path 8505" d="M80.009,98.96s-2.4-3.082-4.724.671" transform="translate(214.926 344.158) rotate(-16)" fill="none" stroke="#23282e" stroke-linecap="round" stroke-width="2.809"/>
      <path id="Path_8506" data-name="Path 8506" d="M83.308,118.1a11.914,11.914,0,0,0-4.9.768" transform="translate(211.593 336.925) rotate(-16)" fill="none" stroke="#23282e" stroke-linecap="round" stroke-width="2.302"/>
      <path id="Path_8507" data-name="Path 8507" d="M100.974,104.665s-2.4-3.082-4.724.671" transform="translate(206.501 344.273) rotate(-16)" fill="none" stroke="#23282e" stroke-linecap="round" stroke-width="2.809"/>
      <path id="Path_8508" data-name="Path 8508" d="M63.107,21.76c2.279-.8,6.485-3.444,2.983-11.778a.255.255,0,0,0-.49.076c-.085,1.221-.414,3.008-1.611,3.087-3.461.227-1.289-9.744-6.67-11.724a.257.257,0,0,0-.334.311c.35,1.2,1.013,4.464-1.4,6.226-4.693,3.424-5.425,10.774.713,13.89a.256.256,0,0,0,.354-.322,8.2,8.2,0,0,1-.432-4.894,1.4,1.4,0,0,1,2.655-.175c.536,1.32,1.448,2.441,2.98,1.87a1.4,1.4,0,0,1,1.767,1.808,3.491,3.491,0,0,1-.772,1.2A.254.254,0,0,0,63.107,21.76Z" transform="translate(233.951 377.578) rotate(-16)" fill="none" stroke="#23282e" stroke-linecap="round" stroke-width="2.809"/>
      <path id="Path_8509" data-name="Path 8509" d="M17.479,184.322c-35,10.912-5.645,46.1,19.9,58.171,37.934,17.924,59.7-94.879,59.7-94.879s-3.108-4.1-10.244-7c-15.578,45.358-40.741,75.908-40.467,75.448L26.78,201.832" transform="translate(237.886 320.29) rotate(-16)" fill="none" stroke="#23282e" stroke-linecap="round" stroke-width="2.809"/>
      <path id="Path_8510" data-name="Path 8510" d="M141.742,121.39l-3.213-15.971a15.319,15.319,0,0,1,.278-7.5l1.854-6.336a2.448,2.448,0,0,1,2.75-1.728l2.05.339" transform="translate(192.326 353.847) rotate(-16)" fill="none" stroke="#23282e" stroke-linecap="round" stroke-width="2.809"/>
      <path id="Path_8511" data-name="Path 8511" d="M147.317,98.843l2.115-8.6A2.843,2.843,0,0,1,153.5,88.4l2.851,1.474" transform="translate(189.11 355.47) rotate(-16)" fill="none" stroke="#23282e" stroke-linecap="round" stroke-width="2.809"/>
      <path id="Path_8512" data-name="Path 8512" d="M156.574,98.611l2.77-6.951a2.8,2.8,0,0,1,4.082-1.343l3.73,2.317" transform="translate(185.466 355.783) rotate(-16)" fill="none" stroke="#23282e" stroke-linecap="round" stroke-width="2.809"/>
      <path id="Path_8513" data-name="Path 8513" d="M162.632,101.489l5.117-6.12c1.681-1.515,3.562-.508,4.535.9l3.039,3.4" transform="translate(182.703 354.671) rotate(-16)" fill="none" stroke="#23282e" stroke-linecap="round" stroke-width="2.809"/>
      <path id="Path_8514" data-name="Path 8514" d="M70.922,218.683s-7.5,20.726-30.877-2.633" transform="translate(215.419 296.301) rotate(-16)" fill="none" stroke="#23282e" stroke-linecap="round" stroke-width="2.873"/>
      <path id="Path_8515" data-name="Path 8515" d="M235.382,96.5l-66.1,4.636c-8.533,7.088-5.8,17.348-5.8,17.348s1.224,4.164-5.449,11.532" transform="translate(184.217 353.478) rotate(-16)" fill="none" stroke="#23282e" stroke-linecap="round" stroke-width="2.809"/>
      <line id="Line_50" data-name="Line 50" x2="69.788" y2="7.482" transform="translate(373.669 421.635) rotate(-16)" fill="none" stroke="#23282e" stroke-linecap="round" stroke-width="2.809"/>
      <path id="Path_8516" data-name="Path 8516" d="M122.587,106.571l-20.992.867a3.285,3.285,0,0,0-2.831,1.813,6.373,6.373,0,0,0,.541,7.034,3.262,3.262,0,0,0,2.249,1.234l22.767,2.464" transform="translate(205.529 343.302) rotate(-16)" fill="none" stroke="#23282e" stroke-linecap="round" stroke-width="2.809"/>
      <path id="Path_8517" data-name="Path 8517" d="M299.7,99.771c10.186.6,7.184,29.541-2.3,28.107C286.593,126.245,288.756,99.125,299.7,99.771Z" transform="translate(134.559 366.4) rotate(-16)" fill="none" stroke="#23282e" stroke-linecap="round" stroke-width="2.809"/>
      <path id="Path_8518" data-name="Path 8518" d="M126.241,222.361c9.609,4.541,24.862,8.654,33.093,10.087a18.611,18.611,0,0,0,18.756-8.179c25.578-39.154,31.6-71.983,33.177-83.551l-15.323-1.935c-8.061,31.914-26.444,55.88-32.951,63.856a5.5,5.5,0,0,1-5.79,1.81,157.165,157.165,0,0,1-23.716-8.734" transform="translate(190.006 334.759) rotate(-16)" fill="none" stroke="#23282e" stroke-linecap="round" stroke-width="2.809"/>
      <path id="Path_8532" data-name="Path 8532" d="M0,0S-3.73,41.463-14.618,83.4" transform="translate(370.375 503.268) rotate(-16)" fill="none" stroke="#23282e" stroke-linecap="round" stroke-width="2.809"/>
      <path id="Path_8519" data-name="Path 8519" d="M271.228,94.08c-1.307,1.265-1.434,3.471-1.313,5.089a1.92,1.92,0,0,1-2.213,1.9h-.032a2.4,2.4,0,0,1-2.427-2.108,11.987,11.987,0,0,1,.84-4.117c1.681-4.667,5.145-.765,5.145-.765" transform="translate(144.673 366.407) rotate(-16)" fill="#fff"/>
      <path id="Path_8520" data-name="Path 8520" d="M271.228,94.08c-1.307,1.265-1.434,3.471-1.313,5.089a1.92,1.92,0,0,1-2.213,1.9h-.032a2.4,2.4,0,0,1-2.427-2.108,11.987,11.987,0,0,1,.84-4.117C267.764,90.179,271.228,94.08,271.228,94.08Z" transform="translate(144.673 366.407) rotate(-16)" fill="none" stroke="#23282e" stroke-linecap="round" stroke-width="2.809"/>
      <path id="Path_8521" data-name="Path 8521" d="M263.109,93.142c-1.307,1.265-1.434,3.471-1.313,5.089a1.92,1.92,0,0,1-2.213,1.9h-.032a2.4,2.4,0,0,1-2.427-2.108,11.987,11.987,0,0,1,.84-4.117c1.681-4.667,5.145-.765,5.145-.765" transform="translate(147.8 365.889) rotate(-16)" fill="#fff"/>
      <path id="Path_8522" data-name="Path 8522" d="M263.109,93.142c-1.307,1.265-1.434,3.471-1.313,5.089a1.92,1.92,0,0,1-2.213,1.9h-.032a2.4,2.4,0,0,1-2.427-2.108,11.987,11.987,0,0,1,.84-4.117C259.645,89.241,263.109,93.142,263.109,93.142Z" transform="translate(147.8 365.889) rotate(-16)" fill="none" stroke="#23282e" stroke-linecap="round" stroke-width="2.809"/>
      <path id="Path_8523" data-name="Path 8523" d="M255.01,92.128c-1.307,1.265-1.434,3.471-1.313,5.089a1.92,1.92,0,0,1-2.213,1.9h-.032a2.4,2.4,0,0,1-2.427-2.108,11.987,11.987,0,0,1,.84-4.117c1.681-4.667,5.145-.765,5.145-.765" transform="translate(150.928 365.401) rotate(-16)" fill="#fff"/>
      <path id="Path_8524" data-name="Path 8524" d="M255.01,92.128c-1.307,1.265-1.434,3.471-1.313,5.089a1.92,1.92,0,0,1-2.213,1.9h-.032a2.4,2.4,0,0,1-2.427-2.108,11.987,11.987,0,0,1,.84-4.117C251.546,88.227,255.01,92.128,255.01,92.128Z" transform="translate(150.928 365.401) rotate(-16)" fill="none" stroke="#23282e" stroke-linecap="round" stroke-width="2.809"/>
      <path id="Path_8525" data-name="Path 8525" d="M246.2,90.867c-1.307,1.265-1.434,3.471-1.313,5.089a1.92,1.92,0,0,1-2.213,1.9h-.032a2.4,2.4,0,0,1-2.427-2.108,11.977,11.977,0,0,1,.841-4.117c1.681-4.667,5.144-.765,5.144-.765" transform="translate(154.345 364.93) rotate(-16)" fill="#fff"/>
      <path id="Path_8526" data-name="Path 8526" d="M246.2,90.867c-1.307,1.265-1.434,3.471-1.313,5.089a1.92,1.92,0,0,1-2.213,1.9h-.032a2.4,2.4,0,0,1-2.427-2.108,11.977,11.977,0,0,1,.841-4.117C242.74,86.966,246.2,90.867,246.2,90.867Z" transform="translate(154.345 364.93) rotate(-16)" fill="none" stroke="#23282e" stroke-linecap="round" stroke-width="2.809"/>
      <path id="Path_8527" data-name="Path 8527" d="M299.7,99.771c10.186.6,7.184,29.541-2.3,28.107C286.593,126.245,288.756,99.125,299.7,99.771Z" transform="translate(134.559 366.4) rotate(-16)" fill="none" stroke="#23282e" stroke-linecap="round" stroke-width="2.809"/>
      <path id="Path_8528" data-name="Path 8528" d="M296.482,94.256c12.127.716,8.553,35.169-2.742,33.462C280.874,125.774,283.45,93.488,296.482,94.256Z" transform="translate(137.017 367.921) rotate(-16)" fill="none" stroke="#23282e" stroke-linecap="round" stroke-width="2.809"/>
      <path id="Path_8529" data-name="Path 8529" d="M293.057,93.82l-6.5-.8c-13.032-.769-15.608,31.518-2.741,33.462l6.078.757" transform="translate(140.85 367.321) rotate(-16)" fill="none" stroke="#23282e" stroke-linecap="round" stroke-width="2.809"/>
      <path id="Path_8530" data-name="Path 8530" d="M306.473,126.038a13.785,13.785,0,0,0,.911-13.926" transform="translate(127.213 363.523) rotate(-16)" fill="none" stroke="#fff" stroke-linecap="round" stroke-width="2.809"/>
      <path id="Path_8531" data-name="Path 8531" d="M98.4,213.914A43.917,43.917,0,0,0,86.36,210.2" transform="translate(198.78 303.432) rotate(-16)" fill="none" stroke="#23282e" stroke-linecap="round" stroke-width="2.809"/>
      <line id="Line_52" data-name="Line 52" x1="39.876" y1="3.595" transform="translate(393.713 413.603) rotate(-16)" fill="none" stroke="#23282e" stroke-linecap="round" stroke-width="2.809"/>
      <line id="Line_53" data-name="Line 53" x1="9.842" y1="0.839" transform="translate(377.216 416.519) rotate(-16)" fill="none" stroke="#23282e" stroke-linecap="round" stroke-width="2.809"/>
      <line id="Line_54" data-name="Line 54" x1="16.755" y1="1.434" transform="translate(335.978 424.815) rotate(-16)" fill="none" stroke="#23282e" stroke-linecap="round" stroke-width="2.809"/>
      <rect id="Rectangle_254" data-name="Rectangle 254" width="194.343" height="193.931" transform="translate(253.44 372.556) rotate(-16)" fill="none"/>
    </g>
  </g>
</svg>
