<?xml version="1.0" encoding="utf-8"?>
<!-- Generator: Adobe Illustrator 27.0.0, SVG Export Plug-In . SVG Version: 6.00 Build 0)  -->
<svg version="1.1" id="Layer_1" xmlns="http://www.w3.org/2000/svg" xmlns:xlink="http://www.w3.org/1999/xlink" x="0px" y="0px"
	 viewBox="0 0 100 100" style="enable-background:new 0 0 100 100;" xml:space="preserve">
<style type="text/css">
	.st0{fill:#FFFFFF;}
</style>
<path class="st0" d="M72.98,10.95H27.03c-8.88,0-16.08,7.2-16.08,16.08v45.95c0,8.88,7.2,16.08,16.08,16.08h45.95
	c8.88,0,16.08-7.2,16.08-16.08V27.03C89.05,18.15,81.86,10.95,72.98,10.95z M38.02,71.66h-9.15V42.52h9.15V71.66z M33.43,38.74
	c-2.92,0-5.29-2.37-5.29-5.3c0-2.92,2.37-5.29,5.29-5.29c2.93,0,5.3,2.37,5.3,5.29C38.74,36.36,36.36,38.74,33.43,38.74z
	 M71.86,71.86h-9.14V54.91c0,0,0-0.02,0-0.04c0-0.43-0.12-5-5.16-5c-1.72,0-3.23,0.76-4.07,2.28c-0.99,1.8-0.84,3.91-0.84,5.89
	v13.69h-9.14V42.59h8.75v3.9c0,0,0.13-0.23,0.39-0.58c1-1.29,3.9-4.33,9.01-4.12c0.36,0.02,0.72,0.04,1.06,0.08
	c5.84,0.63,9.14,4.48,9.14,10.98V71.86z"/>
</svg>
