<svg version="1.1" id="libra_logo" xmlns="http://www.w3.org/2000/svg" xmlns:xlink="http://www.w3.org/1999/xlink" x="0px" y="0px" width="48.75px" height="72px" viewBox="0 0 48.75 72" enable-background="new 0 0 48.75 72" xml:space="preserve">
                            <g>
                                <path fill-rule="evenodd" clip-rule="evenodd" fill="#FAA61A" d="M30.32,30.661c-2.509,6.069-7.69,11.79-10.048,18.706
                                    c-2.582,7.573,2.302,12.366,8.547,9.697C38.733,54.829,38.227,36.717,30.32,30.661z"></path>
                                <path fill-rule="evenodd" clip-rule="evenodd" fill="#FAA61A" d="M18.986,25.762c-2.399,4.134-5.529,9.543-7.195,15
                                    C7.71,54.124,14.574,63.095,24.032,63.17c8.354,0.065,13.271-7.45,14.101-14.191C41.184,61.28,33.717,71,22.779,71
                                    C5.674,71-1.411,54.721,1.41,40.267C3.654,28.77,14.425,12.966,15.203,6.968C17.479,8.497,23.538,16.976,18.986,25.762z"></path>
                                <path fill-rule="evenodd" clip-rule="evenodd" fill="#F15625" d="M16.375,56.573c-0.02-0.017-6.858-6.102-0.206-20.456
                                    c2.308-4.979,4.992-8.934,6.699-14.375C24.89,15.292,20.338,6.543,15.695,1c4.993,4.068,26.742,9.181,32.497,3.606
                                    c-2.279,9.944-12.438,10.545-18.417,8.536c0.895,3.074,1.05,5.907,0.703,8.574c5.642,0.563,10.892,0.11,13.313-2.235
                                    c-1.926,8.402-9.478,10.133-15.381,9.255C24.276,38.021,15.9,45.892,16.375,56.573z"></path>
                            </g>
                        </svg>