<svg class="dec10 js-observe" xmlns="http://www.w3.org/2000/svg" width="39.3390007019043" height="36.402000427246094" viewBox="0 0 39.339 36.402">
  <g id="Group_846" data-name="Group 846" transform="translate(-6302.029 7576.178)">
    <path id="Path_63" data-name="Path 63" d="M455.653,244.055c-3.509-2.309-3.23-11.364.9-17.008,5.352-7.323,18.126-10.2,26.407-3.58,7.4,5.913,8.145,16.955,4.252,23.5-1.827,3.071-5.69,6.857-8.728,6.043-3.868-1.038-2.5-8.486-7.162-10.966-5.372-2.855-11.726,4.606-15.665,2.014" transform="translate(5850.312 -7794.402)" fill="#f15928" stroke="#707070" stroke-width="3" class="svg-elem-1"></path>
    <path id="Path_67" data-name="Path 67" d="M455.653,244.055c-3.509-2.309-3.23-11.364.9-17.008,5.352-7.323,18.126-10.2,26.407-3.58,7.4,5.913,8.145,16.955,4.252,23.5-1.827,3.071-5.69,6.857-8.728,6.043-3.868-1.038-2.5-8.486-7.162-10.966C465.947,239.185,459.592,246.646,455.653,244.055Z" transform="translate(5850.312 -7794.402)" fill="#f15928" stroke="#23282e" stroke-linecap="round" stroke-width="3" class="svg-elem-2"></path>
  </g>
</svg>
