<svg class="dec3 js-observe" xmlns="http://www.w3.org/2000/svg" width="46.09400177001953" height="42.611000061035156" viewBox="0 0 46.094 42.611">
  <g id="Group_75" data-name="Group 75" transform="translate(-6302.028 7576.184)">
    <path id="Path_63" data-name="Path 63" d="M456.1,248.572c-4.162-2.738-3.83-13.477,1.062-20.171,6.347-8.684,21.5-12.093,31.317-4.246,8.779,7.013,9.659,20.107,5.043,27.867-2.167,3.642-6.748,8.132-10.351,7.166-4.587-1.23-2.96-10.063-8.493-13.005-6.37-3.386-13.906,5.462-18.578,2.389" transform="translate(5850.312 -7794.402)" fill="#f7a320" stroke="#707070" stroke-width="3" class="svg-elem-1"></path>
    <path id="Path_67" data-name="Path 67" d="M456.1,248.572c-4.162-2.738-3.83-13.477,1.062-20.171,6.347-8.684,21.5-12.093,31.317-4.246,8.779,7.013,9.659,20.107,5.043,27.867-2.167,3.642-6.748,8.132-10.351,7.166-4.587-1.23-2.96-10.063-8.493-13.005C468.313,242.8,460.777,251.646,456.1,248.572Z" transform="translate(5850.312 -7794.402)" fill="none" stroke="#23282e" stroke-linecap="round" stroke-width="3" class="svg-elem-2"></path>
  </g>
</svg>
