<svg xmlns="http://www.w3.org/2000/svg" width="42.121" height="62.273" viewBox="0 0 42.121 62.273">
  <g id="Group_2" data-name="Group 2" transform="translate(0)">
    <g id="Group_3" data-name="Group 3" transform="translate(16.677 26.371)">
      <g id="Group_2-2" data-name="Group 2" transform="translate(0 0)">
        <path id="Path_5" data-name="Path 5" d="M-598.851-371.92c-2.224,5.4-6.813,10.485-8.931,16.627-2.295,6.743,2.047,10.979,7.59,8.614C-591.367-350.421-591.826-366.554-598.851-371.92Z" transform="translate(608.409 371.92)" fill="#fff"/>
      </g>
    </g>
    <g id="Group_5" data-name="Group 5" transform="translate(0 5.331)">
      <g id="Group_4" data-name="Group 4">
        <path id="Path_6" data-name="Path 6" d="M-734.243-534.378c-2.118,3.671-4.907,8.472-6.39,13.344-3.636,11.861,2.471,19.84,10.873,19.91,7.413.071,11.791-6.637,12.532-12.6,2.718,10.944-3.918,19.593-13.662,19.593-15.215,0-21.5-14.474-18.992-27.324,2.012-10.237,11.579-24.252,12.25-29.618C-735.585-549.735-730.219-542.215-734.243-534.378Z" transform="translate(750.418 551.076)" fill="#fff"/>
      </g>
    </g>
    <g id="Group_7" data-name="Group 7" transform="translate(11.069)">
      <g id="Group_6" data-name="Group 6" transform="translate(0)">
        <path id="Path_7" data-name="Path 7" d="M-653.386-547.079c-.035,0-6.107-5.437-.177-18.181,2.048-4.413,4.448-7.943,5.966-12.779,1.765-5.719-2.259-13.485-6.39-18.428,4.448,3.6,23.758,8.155,28.877,3.213-2.012,8.825-11.049,9.39-16.38,7.59a18.555,18.555,0,0,1,.635,7.625c5.013.494,9.673.106,11.826-1.977-1.73,7.484-8.437,9-13.662,8.225C-646.361-563.565-653.81-556.576-653.386-547.079Z" transform="translate(656.161 596.467)" fill="#fff"/>
      </g>
    </g>
  </g>
</svg>
