<svg class="home-hero__animation js-observe" width="615" height="509" viewBox="0 0 615 509" fill="none" xmlns="http://www.w3.org/2000/svg">
<path d="M542.6 487.2H72.9999C44.7999 487.2 21.8999 464.3 21.8999 436.1V114.5C21.8999 91.5 40.5999 72.8 63.5999 72.8H542.6C570.8 72.8 593.7 95.7 593.7 123.9V436.2C593.7 464.4 570.8 487.2 542.6 487.2Z" fill="#F05928" class="svg-elem-1"></path>
<path d="M22 159.3C22 159.3 90.9 168.7 90.9 236.8C90.9 304.9 50.3 288.1 48.2 331.1C46.6 363.6 74 395.7 22 426.2" fill="#F7A320" class="svg-elem-2"></path>
<path d="M103.7 289.6C97.6998 285.6 86.9998 290.6 82.9998 298.2C80.1998 303.5 79.4998 311.9 84.1998 315.8C89.6998 320.3 100.3 316.7 104.9 309.9C109.3 303.6 109.2 293.3 103.7 289.6Z" fill="#F7A320" class="svg-elem-3"></path>
<path d="M478 405.9C472.2 402.1 472.6 387 479.5 377.7C488.4 365.5 509.6 360.8 523.3 371.8C535.6 381.6 536.8 399.9 530.4 410.8C527.4 415.9 521 422.2 515.9 420.8C509.5 419.1 511.8 406.7 504 402.6C495.1 397.8 484.5 410.2 478 405.9Z" fill="#F7A320" class="svg-elem-4"></path>
<path d="M21.9999 115.1C21.9999 115.1 20.9999 78.4 60.4999 72.8L548.8 73.3C548.8 73.3 565.8 78.1001 567.5 79.2001C569.2 80.3001 581.1 87.9001 586.5 99.2001C591.9 110.5 592.9 116.5 592.9 116.5L21.9999 115.1Z" fill="#353B45" class="svg-elem-5"></path>
<path d="M542.6 487.2H72.9999C44.7999 487.2 21.8999 464.3 21.8999 436.1V114.5C21.8999 91.5 40.5999 72.8 63.5999 72.8H542.6C570.8 72.8 593.7 95.7 593.7 123.9V436.2C593.7 464.4 570.8 487.2 542.6 487.2Z" stroke="#23282E" stroke-width="2.4239" stroke-miterlimit="10" stroke-linecap="round" class="svg-elem-6"></path>
<path d="M215.7 507.6H109.2" stroke="#23282E" stroke-width="2.4239" stroke-miterlimit="10" stroke-linecap="round" class="svg-elem-7"></path>

<path d="M613.6 431.3V439.5" stroke="#23282E" stroke-width="2.4239" stroke-miterlimit="10" stroke-linecap="round" class="svg-elem-9"></path>


<path d="M613.6 135.5V148.8" stroke="#23282E" stroke-width="2.4239" stroke-miterlimit="10" stroke-linecap="round" class="svg-elem-12"></path>
<path d="M429.3 52.5H524" stroke="#23282E" stroke-width="2.4239" stroke-miterlimit="10" stroke-linecap="round" class="svg-elem-13"></path>
<path d="M321.3 52.5H395.7" stroke="#23282E" stroke-width="2.4239" stroke-miterlimit="10" stroke-linecap="round" class="svg-elem-14"></path>
<path d="M2 120.6V154.8V112.8C2 79.5 29 52.5 62.3 52.5H70.1" stroke="#23282E" stroke-width="2.4239" stroke-miterlimit="10" stroke-linecap="round" class="svg-elem-15"></path>
<path d="M22 159.3C22 159.3 90.9 168.7 90.9 236.8C90.9 304.9 50.3 288.1 48.2 331.1C46.6 363.6 74 395.7 22 426.2" stroke="#23282E" stroke-width="2.4239" stroke-miterlimit="10" stroke-linecap="round" class="svg-elem-16"></path>
<path d="M103.7 289.6C97.6998 285.6 86.9998 290.6 82.9998 298.2C80.1998 303.5 79.4998 311.9 84.1998 315.8C89.6998 320.3 100.3 316.7 104.9 309.9C109.3 303.6 109.2 293.3 103.7 289.6Z" stroke="#23282E" stroke-width="2.4239" stroke-miterlimit="10" stroke-linecap="round" class="svg-elem-17"></path>
<path d="M483.7 147C465.1 151.5 465.1 167.7 472.2 172.4C481.7 178.8 497 169 496.7 163.2C496.4 158.5 483.4 153.5 479.1 157.3C476.5 159.6 476.6 165.6 478.7 166.7C480.1 167.4 482.3 166 483.4 165.1" stroke="white" stroke-width="2.4239" stroke-miterlimit="10" stroke-linecap="round" class="svg-elem-18"></path>
<path d="M478 405.9C472.2 402.1 472.6 387 479.5 377.7C488.4 365.5 509.6 360.8 523.3 371.8C535.6 381.6 536.8 399.9 530.4 410.8C527.4 415.9 521 422.2 515.9 420.8C509.5 419.1 511.8 406.7 504 402.6C495.1 397.8 484.5 410.2 478 405.9Z" stroke="#23282E" stroke-width="2.4239" stroke-miterlimit="10" stroke-linecap="round" class="svg-elem-19"></path>
<path d="M22.1001 115.1H592.9" stroke="#23282E" stroke-width="2.4239" stroke-miterlimit="10" stroke-linecap="round" class="svg-elem-20"></path>
<path d="M50 89.3L62.5 101.8" stroke="white" stroke-width="2.4239" stroke-miterlimit="10" stroke-linecap="round" class="svg-elem-21"></path>
<path d="M62.5 89.3L50 101.8" stroke="white" stroke-width="2.4239" stroke-miterlimit="10" stroke-linecap="round" class="svg-elem-22"></path>
<path d="M82.8 101.8H75.1C73.4 101.8 72 100.4 72 98.7V92.2999C72 90.5999 73.4 89.2 75.1 89.2H82.8C84.5 89.2 85.9 90.5999 85.9 92.2999V98.7C85.8 100.4 84.5 101.8 82.8 101.8Z" stroke="white" stroke-width="2.4239" stroke-miterlimit="10" stroke-linecap="round" class="svg-elem-23"></path>
<path d="M95.5 95.5H109.8" stroke="white" stroke-width="2.4239" stroke-miterlimit="10" stroke-linecap="round" class="svg-elem-24"></path>
<path d="M146.696 155.279C146.696 155.145 146.665 154.943 146.604 154.674C146.543 154.405 146.47 154.1 146.384 153.758C146.299 153.403 146.201 153.031 146.091 152.64C145.981 152.236 145.883 151.845 145.798 151.466C145.712 151.088 145.639 150.733 145.578 150.403C145.517 150.073 145.486 149.798 145.486 149.579C145.486 149.297 145.566 149.071 145.724 148.9C145.883 148.717 146.085 148.577 146.329 148.479C146.574 148.381 146.836 148.314 147.117 148.277C147.399 148.24 147.667 148.222 147.924 148.222C148.242 148.222 148.547 148.314 148.84 148.497C149.146 148.668 149.354 148.98 149.464 149.432C149.598 149.908 149.708 150.391 149.794 150.88C149.891 151.357 149.977 151.827 150.05 152.291C150.124 152.743 150.191 153.183 150.252 153.611C150.325 154.039 150.398 154.436 150.472 154.802C150.545 155.096 150.637 155.328 150.747 155.499C150.869 155.67 151.009 155.805 151.168 155.902C151.339 155.988 151.517 156.043 151.7 156.067C151.895 156.092 152.103 156.104 152.323 156.104C152.567 156.104 152.83 156.079 153.111 156.031C153.392 155.982 153.667 155.957 153.936 155.957C154.107 155.957 154.272 155.988 154.431 156.049C154.602 156.098 154.755 156.196 154.889 156.342C155.024 156.477 155.128 156.666 155.201 156.91C155.286 157.155 155.329 157.466 155.329 157.845C155.329 158.163 155.268 158.432 155.146 158.652C155.024 158.859 154.791 159 154.449 159.073L153.789 159.22C153.582 159.257 153.386 159.287 153.203 159.312C153.032 159.324 152.812 159.342 152.543 159.367C151.969 159.428 151.682 159.678 151.682 160.118C151.682 160.155 151.706 160.32 151.755 160.613C151.804 160.906 151.865 161.273 151.938 161.713C152.024 162.14 152.115 162.617 152.213 163.143C152.311 163.656 152.403 164.151 152.488 164.627C152.586 165.104 152.671 165.531 152.745 165.91C152.818 166.277 152.873 166.54 152.91 166.698C152.971 166.967 153.02 167.175 153.056 167.322C153.093 167.468 153.111 167.67 153.111 167.927C153.111 168.122 153.056 168.318 152.946 168.513C152.836 168.696 152.671 168.861 152.451 169.008C152.244 169.155 151.987 169.271 151.682 169.356C151.376 169.454 151.028 169.503 150.637 169.503C150.209 169.503 149.897 169.375 149.702 169.118C149.519 168.849 149.39 168.544 149.317 168.202C149.158 167.566 149.005 166.912 148.859 166.24C148.724 165.568 148.59 164.902 148.456 164.242C148.333 163.582 148.211 162.941 148.089 162.318C147.979 161.682 147.875 161.077 147.777 160.503C147.716 160.234 147.606 160.039 147.447 159.916C147.289 159.782 147.087 159.715 146.843 159.715C146.012 159.715 145.175 159.745 144.331 159.807C143.5 159.855 142.682 159.898 141.875 159.935C141.594 159.959 141.374 160.051 141.215 160.21C141.056 160.369 140.977 160.576 140.977 160.833C140.977 161.407 140.983 161.976 140.995 162.538C141.008 163.1 141.014 163.674 141.014 164.261C141.014 164.933 141.001 165.623 140.977 166.332C140.965 167.041 140.94 167.725 140.904 168.385C140.879 168.629 140.806 168.831 140.684 168.99C140.574 169.149 140.427 169.277 140.244 169.375C140.073 169.472 139.871 169.54 139.639 169.576C139.419 169.613 139.193 169.631 138.961 169.631C138.386 169.631 137.94 169.533 137.623 169.338C137.305 169.155 137.146 168.837 137.146 168.385C137.146 167.7 137.164 166.986 137.201 166.24C137.238 165.495 137.256 164.743 137.256 163.986C137.256 163.472 137.25 162.978 137.238 162.501C137.226 162.012 137.219 161.511 137.219 160.998C137.219 160.766 137.164 160.595 137.054 160.485C136.957 160.363 136.834 160.265 136.688 160.191C136.541 160.118 136.376 160.051 136.193 159.99C136.01 159.916 135.845 159.813 135.698 159.678C135.551 159.544 135.423 159.348 135.313 159.092C135.215 158.835 135.166 158.481 135.166 158.029C135.166 157.784 135.209 157.595 135.295 157.46C135.393 157.314 135.509 157.198 135.643 157.112C135.79 157.027 135.942 156.959 136.101 156.91C136.26 156.849 136.407 156.776 136.541 156.69C136.688 156.605 136.804 156.501 136.889 156.379C136.987 156.244 137.036 156.055 137.036 155.811C137.036 155.664 137.03 155.493 137.018 155.297C137.006 155.09 136.993 154.894 136.981 154.711C136.969 154.528 136.957 154.369 136.944 154.234C136.932 154.088 136.926 153.99 136.926 153.941C136.926 153.526 136.981 153.196 137.091 152.951C137.213 152.695 137.36 152.505 137.531 152.383C137.702 152.249 137.892 152.163 138.099 152.126C138.319 152.077 138.527 152.053 138.722 152.053C139.456 152.053 139.963 152.194 140.244 152.475C140.537 152.743 140.696 153.141 140.72 153.666L140.794 155.591C140.818 155.884 140.898 156.11 141.032 156.269C141.166 156.416 141.386 156.489 141.692 156.489L145.853 156.342C146.207 156.318 146.433 156.22 146.531 156.049C146.641 155.878 146.696 155.621 146.696 155.279ZM159.49 150.477C159.136 150.477 158.8 150.428 158.482 150.33C158.176 150.22 157.908 150.073 157.675 149.89C157.455 149.695 157.278 149.469 157.144 149.212C157.009 148.955 156.942 148.674 156.942 148.369C156.942 147.856 157.144 147.44 157.547 147.122C157.963 146.805 158.512 146.646 159.197 146.646C159.514 146.646 159.82 146.707 160.113 146.829C160.406 146.939 160.663 147.092 160.883 147.287C161.115 147.483 161.299 147.715 161.433 147.984C161.567 148.24 161.635 148.509 161.635 148.79C161.635 149.316 161.439 149.731 161.048 150.037C160.669 150.33 160.15 150.477 159.49 150.477ZM156.979 156.067C156.979 155.64 157.162 155.291 157.529 155.022C157.908 154.741 158.402 154.601 159.013 154.601C160.113 154.601 160.7 154.98 160.773 155.737C160.822 156.263 160.871 156.855 160.92 157.515C160.981 158.175 161.036 158.878 161.085 159.623C161.146 160.356 161.195 161.12 161.231 161.914C161.28 162.696 161.323 163.472 161.36 164.242C161.396 165 161.427 165.733 161.451 166.442C161.476 167.151 161.488 167.798 161.488 168.385C161.488 168.996 161.268 169.454 160.828 169.76C160.4 170.065 159.771 170.218 158.94 170.218C158.561 170.218 158.262 170.126 158.042 169.943C157.834 169.772 157.73 169.515 157.73 169.173C157.73 167.487 157.688 165.91 157.602 164.444C157.529 162.965 157.443 161.652 157.345 160.503C157.26 159.354 157.174 158.401 157.089 157.644C157.015 156.874 156.979 156.348 156.979 156.067ZM164.604 148.149C164.555 147.978 164.512 147.825 164.476 147.691C164.451 147.556 164.439 147.422 164.439 147.287C164.439 146.945 164.543 146.658 164.751 146.426C164.971 146.194 165.294 146.078 165.722 146.078C167.616 146.078 168.655 146.53 168.838 147.434C169.058 148.583 169.26 149.737 169.443 150.898C169.626 152.059 169.785 153.238 169.92 154.436C170.066 155.621 170.176 156.831 170.25 158.065C170.335 159.287 170.378 160.54 170.378 161.823C170.378 162.067 170.366 162.305 170.341 162.538C170.317 162.758 170.268 162.959 170.195 163.143C170.121 163.314 170.017 163.454 169.883 163.564C169.761 163.674 169.59 163.729 169.37 163.729L167.83 163.509C167.512 163.472 167.286 163.381 167.152 163.234C167.03 163.075 166.956 162.855 166.932 162.574C166.834 160.338 166.59 157.998 166.199 155.554C165.808 153.11 165.276 150.642 164.604 148.149ZM168.38 170.713C168.026 170.713 167.689 170.658 167.372 170.548C167.066 170.45 166.797 170.303 166.565 170.108C166.345 169.924 166.168 169.705 166.034 169.448C165.899 169.191 165.832 168.91 165.832 168.605C165.832 168.092 166.034 167.676 166.437 167.358C166.852 167.041 167.402 166.882 168.087 166.882C168.404 166.882 168.71 166.943 169.003 167.065C169.296 167.175 169.553 167.328 169.773 167.523C170.005 167.719 170.188 167.951 170.323 168.22C170.457 168.476 170.524 168.745 170.524 169.026C170.524 169.552 170.329 169.961 169.938 170.254C169.559 170.56 169.04 170.713 168.38 170.713Z" fill="white" class="svg-elem-25"></path>
<mask id="mask0_5_50" style="mask-type:luminance" maskUnits="userSpaceOnUse" x="21" y="0" width="573" height="488">
<path d="M542.6 487.2H72.9999C44.7999 487.2 21.8999 464.3 21.8999 436.1V114.5C21.8999 91.5 40.5999 72.8 63.5999 72.8L294.7 0C322.9 0 593.7 95.6 593.7 123.8V436.1C593.7 464.4 570.8 487.2 542.6 487.2Z" fill="white" class="svg-elem-26"></path>
</mask>
<g mask="url(#mask0_5_50)" class="guy">
<path d="M322.7 448.5C321.6 449.4 320.3 450.1 318.8 450.3C311.7 451.3 304.9 452.1 297.8 452.2C296.6 452.7 295.4 453 294.1 453C291.6 453 289 453.2 286.5 453.4C283.7 453.6 281.1 453.2 278.6 452.3C277.2 452.3 275.9 452.3 274.5 452.3C272.4 452.3 270.7 451.8 269.2 450.9C266.6 450.8 264 450.7 261.3 450.3C258.4 449.9 255.8 448.7 253.2 447.7C251.8 447.7 250.6 447.4 249.6 447C248.1 447 246.7 446.8 245.2 446.5C244.9 446.4 244.6 446.3 244.3 446.2H244.2C242.9 446.2 241.6 445.9 240.4 445.5V781.9H280.6V492.9C280.6 488.6 284.1 485.1 288.4 485.1C290.6 485.1 292.5 486 293.9 487.4C295.3 488.8 296.2 490.7 296.2 492.9V781.9H336.4V445.5C331.9 447.3 327.3 448 322.7 448.5Z" fill="#353B45" class="svg-elem-27"></path>
<path d="M240 464.3C240 464.3 283.3 476.1 336.4 464.3V444.8C336.4 444.8 299.7 456.9 282.3 453.2C264.9 449.5 240 445.2 240 445.2V464.3Z" fill="#272D34" class="svg-elem-28"></path>
<path d="M312.5 468.2C322 468.2 321.7 491.2 321.7 491.2V783.7C321.7 783.7 330.1 784 336.4 778.4V464.3C336.4 464.3 312.7 465.2 312.5 466.1C312.3 466.9 312.5 468.2 312.5 468.2Z" fill="#272D34" class="svg-elem-29"></path>
<path d="M288.4 485.2C275.2 488.6 265.2 494.3 265.2 508.9C265.2 523.5 265.2 783.7 265.2 783.7C265.2 783.7 279.5 781.4 280.7 778.4L280.2 496.2C280.1 496.2 279.9 487.8 288.4 485.2Z" fill="#272D34" class="svg-elem-30"></path>
<path d="M471.8 292.4C470 291.5 464.2 291 459.1 291C454 291.1 445.9 290 441.6 290C437.3 290 434.5 290.9 432.4 291.5C430.3 292.1 429.7 294.1 429.6 294.8C429.5 295.4 431.3 297.8 431.6 298C431.8 298.2 436.2 299.7 436.2 300.1C436.2 300.6 433.7 326.7 434.1 328.2C434.5 329.6 424.7 356 421.9 364.2C419.1 372.4 408.4 382.4 407.9 382.9C407.4 383.3 402.9 386.1 401.4 386.7C399.9 387.3 392.2 385 390.8 384.1C389.4 383.2 384.6 377.2 383.3 375C382 372.8 376.8 355.5 376.4 353.7C376 351.9 373.2 337 372.7 322C372.2 306.9 370.9 262.4 371.3 261C371.7 259.6 370.3 253.3 368.5 248.6C366.7 243.9 363.3 239.2 361.8 235.8C360.3 232.4 344.3 225.7 343.5 225C342.7 224.2 313.4 225 313.4 225C313.4 225 309.1 228 308.7 228.2C308.4 228.5 299.1 236.4 287.8 237.3C276.5 238.2 268.7 226.7 268.4 226.3C268.1 225.9 262.2 225 259.9 225C257.6 225 238.6 224.6 236.7 225C234.8 225.4 220.4 229.5 219.3 229.3C218.2 229.1 208.7 238.4 208.9 238.7C209.1 239 166.9 318 166.7 318.5C166.4 318.9 163.7 321.5 161.3 333.3C158.8 345.1 168 356.7 168 356.7L227.4 420.8L228.2 440.4C228.2 440.4 252 452.2 285.3 453.5C318.6 454.8 344.1 442.5 344.1 442.5L344.6 360.5C344.6 360.5 346.8 363.6 347.3 364.3C347.8 365 355 388.8 355.3 389.9C355.6 391 364.9 405.8 372.7 411.9C380.4 418 393.6 420.6 401.1 421.5C408.5 422.4 411.4 418.3 419.4 416C427.4 413.8 435.5 401.6 438.6 397.4C441.7 393.3 451.1 377 452.4 372.2C453.7 367.4 458.6 351.1 461.8 344.8C465 338.5 468.7 306.5 468.9 304.4C469 302.3 469.5 301.8 470.5 300.6C471.4 299.4 471.3 299.9 472.9 299.2C474.5 298.4 474.9 297.1 475 295C474.8 293 473.6 293.4 471.8 292.4ZM227.6 362.9C227.6 363.7 226.9 374.5 226.9 374.5C226.9 374.5 202.9 344.1 201.7 343.3C200.5 342.5 199.4 339.4 199.2 338.3C199 337.2 199.5 335.3 199.9 334.9C200.3 334.5 203.4 331 203.7 330.6C204 330.2 226.9 286.9 226.9 286.9L228.5 310C228.6 309.9 227.6 362.1 227.6 362.9Z" fill="#F8A419" class="svg-elem-31"></path>
<path d="M492.9 224.4C492.9 224.8 492.8 225.4 492.7 226C492.6 226.9 492.4 227.8 492.3 228.7C492.1 230.2 490.4 232.8 490.2 233.2C490 233.6 483.7 249 483.7 249C483.7 249 478.8 261.3 478.8 262.6C478.8 263.9 473 274.7 472.3 275.7C471.6 276.7 467.5 283 467.2 283.1C466.9 283.2 465.7 286.7 465.6 287.2C465.5 287.7 466.7 291.1 466.2 291.3C465.9 291.3 464 291.3 461.4 291.2C454.4 291 442.2 290.5 442.2 290.5C442.1 289.9 443.6 284.3 442.8 283C442.1 281.6 440.8 275.7 440.6 275.1C440.5 274.6 440 266.3 440.1 265.5C440.2 264.7 440.5 260.2 440.5 260.2C440.5 260.2 432.6 247.6 432.8 246.8C433 246 430.3 236.4 430.8 235.7C431.3 235 431.4 232.6 432.4 232.7C433.4 232.8 436.4 233.6 437.5 234.9C438.6 236.2 448.7 252.3 448.7 252.3L449.4 246.5C449.4 246.5 457.3 224.5 457.4 224C457.6 223.5 465.9 208.7 465.9 208.7C465.9 208.7 466.7 207.2 468.9 207.2C471.1 207.1 473.8 208.4 473.4 208.9C473 209.3 475.4 209.5 475.9 209.2C476.4 208.9 479.5 207.3 480.8 208.3C482.1 209.3 482.6 211.2 483.7 211.6C484.8 212 486.5 210.9 487.8 210.7C489.1 210.5 490.9 211.1 491.3 212.2C491.8 213.3 492.4 213.6 492.2 215.4C492 217.2 491.1 220.4 490.7 221C490.3 221.6 489.4 222.8 490.2 223.1C491.1 223.6 492.9 223.3 492.9 224.4Z" fill="white" class="svg-elem-32"></path>
<path d="M468.1 299.9L462.7 300.4C462.2 331 453.8 355.1 443.9 376.4C432.8 400.2 417 413.9 400.6 413.9C390 413.9 380.3 408.9 372 400C358.7 385.8 350.2 357.9 344.4 335.4C344.3 337.3 344.1 339.1 343.6 340.9C343.7 341.7 343.8 342.5 343.8 343.2C343.9 345.3 343.7 347.3 343.3 349.3L345.4 361.9L352.4 380.2C352.4 380.2 361.8 400.7 362.5 401.4C363.2 402 374.3 414.8 375.7 414.7C377.1 414.7 389.2 421.4 392.3 421.3C395.4 421.2 409.8 421 411.6 420.4C413.4 419.8 427.5 411.2 427.5 411.2C427.5 411.2 444.4 392.2 448.6 382.5C452.8 372.8 459.3 352.1 459.5 351.5C459.6 350.9 467.2 317.2 467.3 315.9C467.5 314.8 468.1 299.9 468.1 299.9Z" fill="#F05928" class="svg-elem-33"></path>
<path d="M228 267.5L195.2 330.9C192.6 335.9 193.2 341.9 196.7 346.3L227.7 385.4L226.9 374.5L200.3 341.7L199.2 337.1L200.6 333L228 284.4V267.5Z" fill="#F05928" class="svg-elem-34"></path>
<path d="M492.7 226C492.6 226.9 492.4 227.8 492.3 228.7C492.1 230.2 490.4 232.8 490.2 233.2C490 233.6 483.7 249 483.7 249C483.7 249 478.8 261.3 478.8 262.6C478.8 263.9 473 274.7 472.3 275.7C471.6 276.7 467.5 283 467.2 283.1C466.9 283.2 465.7 286.7 465.6 287.2C465.5 287.7 466.7 291.1 466.2 291.3C465.9 291.3 464 291.3 461.4 291.2C461 288.6 461.6 281.5 463.7 278.4C463.7 278.4 473.8 265.9 476.4 252.9C478.2 244 485.8 232.1 492.7 226Z" fill="#B1B1B1" class="svg-elem-35"></path>
<path d="M442.6 281.5C442.6 281.5 444.6 288.9 452.7 283.1C452.7 283.1 446.3 284.5 442.2 278C440.1 274.8 442.6 281.5 442.6 281.5Z" fill="#B1B1B1" class="svg-elem-36"></path>
<path d="M321.6 159.9C321.1 159.4 320.6 158.8 320.3 158C320.1 158 319.9 158 319.8 158C319.1 158 318.5 158 317.8 158.1C317 158.2 316.3 158.2 315.5 158.3C315.4 158.4 315.4 158.5 315.3 158.6C310.9 163.4 308 169.3 304.1 174.5C301 178.6 297.3 182.2 293.8 185.9C286.6 193.6 278.5 197.9 268.2 198.2C267.3 199.8 265.5 201.1 263.7 201.4C263.8 201.4 263.9 201.4 263.9 201.4C263.9 201.4 266.5 206.7 266.5 207.8C266.5 208.9 266.8 224 266.8 224C266.8 224 272.6 231.7 273.6 232.4C274.6 233.1 282.7 237.4 284.7 237.2C286.8 236.9 291.5 237.3 294.4 236.3C297.2 235.3 301.8 231.1 303.9 230.6C306.1 230.1 311.1 226 311.1 226L312 221.8L313.5 196.2C313.5 196.2 316.9 178.7 316.7 178.3C316.5 177.9 321.1 161.4 321.6 159.9Z" fill="white" class="svg-elem-37"></path>
<path d="M296.2 778.8V492.9C296.2 490.8 295.3 488.8 293.9 487.4C292.5 486 290.6 485.1 288.4 485.1C284.1 485.1 280.6 488.6 280.6 492.9V778.8" stroke="#23282E" stroke-width="2.4239" stroke-miterlimit="10" stroke-linecap="round" class="svg-elem-38"></path>
<path d="M336.4 445.1V778.8" stroke="#23282E" stroke-width="2.4239" stroke-miterlimit="10" stroke-linecap="round" class="svg-elem-39"></path>
<path d="M240.5 779.2V445.6" stroke="#23282E" stroke-width="2.4239" stroke-miterlimit="10" stroke-linecap="round" class="svg-elem-40"></path>
<path d="M344.6 265.5L343.9 442.5C278.8 468.4 228 440.3 228 440.3V265.5" stroke="#23282E" stroke-width="2.4239" stroke-miterlimit="10" stroke-linecap="round" class="svg-elem-41"></path>
<path d="M337.6 224.9H312.2C282.9 253.1 266.5 224.9 266.5 224.9H240H236.6C224.1 224.9 212.4 231.1 205.4 241.5L166.8 318C157.9 331.2 159.6 348.9 170.9 360.2L228 421.6" stroke="#23282E" stroke-width="2.4239" stroke-miterlimit="10" stroke-linecap="round" class="svg-elem-42"></path>
<path d="M297.9 58.1999C297.6 58.3999 297.2 57.9999 297.4 57.6999C297.9 56.2999 298.7 53.4999 298.1 50.4999C298.1 50.3999 298 50.1999 298 50.0999C297.5 48.0999 294.6 47.8999 293.9 49.8999C293.1 51.8999 291.7 53.6999 289.3 52.7999C287.6 52.1999 285.9 53.8999 286.6 55.5999C286.9 56.1999 287.2 56.8999 287.8 57.3999C288.1 57.6999 287.8 58.1999 287.4 58.0999C283.9 56.8999 277.3 52.8999 282.6 39.9999C282.8 39.5999 283.3 39.6999 283.4 40.0999C283.6 41.9999 284.1 44.6999 285.9 44.7999C289.8 44.9999 289 36.7999 291.5 31.0999C292.4 29.0999 293.8 27.3999 296 26.5999C296.3 26.4999 296.6 26.7999 296.5 27.0999C296 28.9999 295 33.9999 298.8 36.6999C306.1 41.9999 307.3 53.2999 297.9 58.1999Z" fill="#F05928" class="svg-elem-43"></path>
<path d="M297.9 58.1999C297.6 58.3999 297.2 57.9999 297.4 57.6999C297.9 56.2999 298.7 53.4999 298.1 50.4999C298.9 48.7999 299.2 46.9999 298.8 45.3999C297.8 41.6999 293.5 41.1999 291.8 37.2999C291.2 35.7999 290.9 33.8999 291.6 31.1999C292.5 29.1999 293.9 27.4999 296.1 26.6999C296.4 26.5999 296.7 26.8999 296.6 27.1999C296.1 29.0999 295.1 34.0999 298.9 36.7999C306.1 41.9999 307.3 53.2999 297.9 58.1999Z" fill="#F8A51B" class="svg-elem-44"></path>
<path d="M312.3 224.9C312.3 224.9 309.5 200.9 321.2 158.8" stroke="#23282E" stroke-width="2.4239" stroke-miterlimit="10" stroke-linecap="round" class="svg-elem-45"></path>
<path d="M266.6 224.9C266.6 224.9 268.8 213.4 263.9 201.5" stroke="#23282E" stroke-width="2.4239" stroke-miterlimit="10" stroke-linecap="round" class="svg-elem-46"></path>
<path d="M286.7 190.9C290.9 186.4 312.9 158.9 312.7 157.9C312.6 157.4 317.2 159.3 324.1 158.9C325.4 157.6 329.2 153.7 329.8 152.8C331.1 150.4 333.5 144.9 333.8 144.1C334.1 143.3 334.9 134.7 331.1 133.6C329.9 133.2 329.1 132.9 328.7 132.6C328 133.1 327.3 133.8 326.6 134.1C325.3 134.8 324.7 135 323.4 135.6C322.1 136.2 320.4 139.2 320.4 139.2C320.4 139.2 317.5 149 317.3 149.8C317.1 150.5 316 150.3 315.1 150.2C314.1 150 311.6 148.1 311.6 147.5C311.6 146.9 312.4 134.5 312 132.4C311.6 130.3 311 123.9 305.7 119.5C300.4 115.1 300.1 105.8 300.1 105.8C300.1 105.8 299.4 105.3 283 107.1C266.6 108.9 252.3 101.5 252.3 101.5C252.3 101.5 249.7 111.1 248.7 112.8C247.7 114.5 245.3 127.9 244.8 128.8C244.3 129.6 239.7 157.7 240.2 159.3C240.7 161 238.9 172.5 239.5 178.2C239.9 181.6 240.6 186.8 242 191.2C254.5 192.5 283.3 194.4 286.7 190.9Z" fill="white" class="svg-elem-47"></path>
<path d="M333.7 118.9C332.1 117.6 327.7 112.7 327.4 112C327.1 111.3 323.9 110.7 326.8 110.6C329.6 110.5 332.6 111.2 333.7 111.2C334.8 111.2 335.6 112.1 335.8 111.1C336 110.1 336.8 109.1 335.9 108.1C335.1 107 333.2 104.8 331.9 103.8C330.7 102.8 330.3 101.1 328.9 101C327.5 100.9 326.3 98.9999 325.4 99.4999C324.5 99.9999 332 91.3 330.2 90.6C328.4 89.9 320.1 92.3999 320.2 91.4999C320.3 90.5999 322.9 82.9 322.9 82.9L318.8 82.9999L319.4 79.7C319.4 79.7 312.9 85 312.6 84.6C312.4 84.2 307.8 70.6999 286.3 72.4999C286.3 72.4999 277.2 68.1 272 68.3L277 75.8C277 75.8 265.7 72.7999 260.9 76.4999C256.1 80.1999 254.4 82.4 254.2 82.7C254 83 245.5 86.7 245 87.2C244.5 87.7 243.3 90.4 242.6 90.8C241.9 91.2 240.7 91.9 241.5 92.9C242.3 93.8 252.2 101.4 252.2 101.4C252.2 101.4 266.5 108.8 282.9 107C299.3 105.2 300 105.7 300 105.7C300 105.7 300.3 115 305.6 119.4C310.9 123.8 311.5 130.2 311.9 132.3C312.3 134.4 311.4 146.8 311.5 147.4C311.5 147.9 314 149.9 315 150.1C316 150.3 317 150.4 317.2 149.7C317.4 149 320.3 139.1 320.3 139.1C320.3 139.1 322 136.1 323.3 135.5C324.6 134.9 325.2 134.8 326.5 134C327.2 133.6 327.9 133 328.6 132.5C327.7 131.9 328.1 131.4 328.1 131.4C328.1 131.4 329.6 127.2 330 126.7C330.4 126.2 333.1 124.8 333.5 124.1C333.9 123.4 336.3 121.9 336.3 121.9C336.3 121.9 335.3 120.3 333.7 118.9Z" fill="#272D34" class="svg-elem-48"></path>
<path d="M240.1 162C246.5 158.7 249.9 158.3 254.2 159.8C258.5 161.3 262.7 163.8 266.8 167.3C270.8 170.8 275.7 176.2 277.9 177.2C280.1 178.3 283.7 179.5 285.5 179.2C287.3 178.9 292.4 178.1 295.5 175.6C298.6 173.1 301.3 169.5 302.5 167.3C303.7 165 308.1 158.4 308.2 157.7C308.3 157 309.7 151.5 310.2 151C310.7 150.5 311.8 149.9 312.9 149.8C314.1 149.7 315.1 149.9 315.9 150C316.8 150.1 317.5 154.2 317.8 157.6C318.1 161 315.1 165.3 314.6 166.3C314.1 167.3 306.6 184.7 305 189.3C303.4 193.9 301 198.2 299.3 199.2C297.6 200.2 294.6 203.3 291.3 203.9C288.1 204.5 258.2 203.4 257.8 203.2C257.4 203.1 253 203 250.3 201.3C247.6 199.6 243.4 194.3 243.3 193.1C243.2 192 239.7 180.5 239.4 179.6C239.1 178.7 239.6 165.8 239.6 165.3C239.6 164.8 240.1 162 240.1 162Z" fill="#272D34" class="svg-elem-49"></path>
<path d="M317.3 155.5C317.3 155.5 318.8 159.4 322.4 159.3C326.1 159.2 331 152.4 333.9 143.3C337 133.6 325.8 128.5 323.4 138.5" stroke="#23282E" stroke-width="2.4239" stroke-miterlimit="10" stroke-linecap="round" class="svg-elem-50"></path>
<path d="M318 156.8L305.3 189.1C301.9 197.7 293.6 203.4 284.4 203.4H259.4C251.6 203.4 244.7 198.3 242.4 190.8C240.1 183.4 238.3 173.3 239.8 162.7C260.5 148.8 270.4 180.2 286.4 179.6C300 179.1 311.2 149.1 311.2 149.1" stroke="#23282E" stroke-width="2.4239" stroke-miterlimit="10" stroke-linecap="round" class="svg-elem-51"></path>
<path d="M239.9 162.7C239.9 162.7 241.6 125.3 253 101.8" stroke="#23282E" stroke-width="2.4239" stroke-miterlimit="10" stroke-linecap="round" class="svg-elem-52"></path>
<path d="M325.5 134.4C320.1 134.1 318.2 144.7 317.5 148.9C317.4 149.7 316.7 150.2 315.9 150C314.7 149.8 313 149.5 312 149.3C311.5 149.2 311.2 148.8 311.3 148.3C311.9 144.9 313.7 132 310.9 126.6C307.7 120.3 300.6 117.3 300.2 105.7C300.2 105.7 257 113.7 240.8 92.1C240.4 91.6 240.7 90.9 241.3 90.8C244.5 90.3 253 89.6 260.8 95.2" stroke="#23282E" stroke-width="2.4239" stroke-miterlimit="10" stroke-linecap="round" class="svg-elem-53"></path>
<path d="M242.3 90.5C242.3 90.5 248 79.5 267.1 83.7" stroke="#23282E" stroke-width="2.4239" stroke-miterlimit="10" stroke-linecap="round" class="svg-elem-54"></path>
<path d="M252.4 83.5C252.4 83.5 263.2 69.1 277.5 77.2C277.9 77.4 278.3 77 278.1 76.6C276.9 74.5 274.1 70.7 270.3 69.2C269.9 69 270 68.4 270.4 68.4C274.6 68.3 284.4 69.3 292.4 80.1" stroke="#23282E" stroke-width="2.4239" stroke-miterlimit="10" stroke-linecap="round" class="svg-elem-55"></path>
<path d="M284.8 72.6999C293.5 71.7999 305.8 71.3999 312.6 84.6999L319.3 78.9999C319.7 78.5999 320.4 78.9999 320.3 79.5999L319.7 83.4999L323.7 81.8999C324.2 81.6999 324.7 82.1999 324.5 82.6999L319.8 91.6999L329.6 89.7999C330.1 89.6999 330.5 90.2999 330.2 90.6999L324.5 100.1C330.4 101.3 334.7 106.6 336.6 109.3C337.1 110.1 336.6 111.2 335.7 111.2C331.7 111.6 326.8 110.7 326.8 110.7C328.4 115 333.7 119 336.7 121C337.3 121.4 337.1 122.4 336.4 122.6C330.3 123.9 327.9 129.3 328 133.1" stroke="#23282E" stroke-width="2.4239" stroke-miterlimit="10" stroke-linecap="round" class="svg-elem-56"></path>
<path d="M246.6 178C252 174 252.7 173.7 255.3 173.7C257.9 173.7 262 174.2 262.7 175C263.4 175.8 265.1 176.1 262.5 177.9C259.9 179.7 258 182.9 254.1 183.8C250.2 184.7 248 185.4 246.4 184.6C244.8 183.8 244 182.5 244.7 181.7C245.4 180.9 246.6 178 246.6 178Z" fill="#F05928" class="svg-elem-57"></path>
<path d="M246.6 166.1C247.4 168 248.3 171.8 248.8 173.1C249.3 174.4 250.8 176 252.5 174.9C254.2 173.8 255.4 172.3 258.1 173C259.6 173.4 261.6 174.5 263 174.5C264.1 174.5 264.8 173.4 264.8 173.4C264.8 173.3 264.3 171.8 263.3 171.2C262.1 170.5 260.4 170.6 259.5 169.7C258 167.9 257.8 167.5 256.1 166.7C254.4 165.9 251.9 165.6 250.2 165.5C248.4 165.3 246.6 166.1 246.6 166.1Z" fill="white" class="svg-elem-58"></path>
<path d="M246.9 164.7C256.1 164.1 258.9 169.4 264.7 171.2C265.6 171.5 265.9 172.5 265.4 173.3C262.5 177.4 254.2 187.5 244.4 183.7C244.1 183.6 244 183.3 244.1 183.1C244.4 181.8 245.6 178.3 248.9 176.3C248.9 176.3 250.6 170.1 246.4 166.1C245.9 165.6 246.3 164.7 246.9 164.7Z" stroke="#23282E" stroke-width="2.4239" stroke-miterlimit="10" stroke-linecap="round" class="svg-elem-59"></path>
<path d="M248.9 176.2C248.9 176.2 258.2 170.4 263 175.2" stroke="#23282E" stroke-width="2.4239" stroke-miterlimit="10" stroke-linecap="round" class="svg-elem-60"></path>
<path d="M256.5 134C253.9 140.6 248.1 147.4 245.1 150.7C244.2 151.7 244.6 153.4 245.9 153.8C247.9 154.5 250.8 155.2 254 155.1" stroke="#23282E" stroke-width="2.4239" stroke-miterlimit="10" stroke-linecap="round" class="svg-elem-61"></path>
<path d="M271.109 133.268C271.806 130.141 271.323 127.373 270.029 127.084C268.735 126.796 267.121 129.096 266.424 132.223C265.727 135.349 266.21 138.117 267.504 138.406C268.797 138.695 270.411 136.394 271.109 133.268Z" fill="#272D34" class="svg-elem-62"></path>
<path d="M252.379 133.862C253.005 131.059 252.55 128.572 251.364 128.308C250.178 128.043 248.71 130.101 248.085 132.904C247.46 135.707 247.914 138.194 249.1 138.458C250.286 138.723 251.754 136.665 252.379 133.862Z" fill="#272D34" class="svg-elem-63"></path>
<path d="M267.5 120.3C267.5 120.3 271 115.4 274.8 121" stroke="#23282E" stroke-width="2.4239" stroke-miterlimit="10" stroke-linecap="round" class="svg-elem-64"></path>
<path d="M249.3 120.3C249.3 120.3 252.8 115.4 256.6 121" stroke="#23282E" stroke-width="2.4239" stroke-miterlimit="10" stroke-linecap="round" class="svg-elem-65"></path>
<path d="M287.4 58.1999C283.9 56.9999 277.3 52.9999 282.6 40.0999C282.8 39.6999 283.3 39.7999 283.4 40.1999C283.6 42.0999 284.1 44.7999 285.9 44.8999C291.2 45.1999 287.7 29.7999 296 26.6999C296.3 26.5999 296.6 26.8999 296.5 27.1999C296 29.0999 295 34.0999 298.8 36.7999C306.1 41.9999 307.4 53.2999 298 58.2999C297.7 58.4999 297.3 58.0999 297.4 57.7999C298 56.2999 298.8 53.3999 298 50.1999C297.5 48.1999 294.7 48.0999 293.9 49.9999C293.1 51.9999 291.7 53.7999 289.3 52.8999C287.6 52.2999 285.9 53.9999 286.6 55.6999C286.9 56.2999 287.2 56.9999 287.8 57.4999C288.1 57.7999 287.8 58.2999 287.4 58.1999Z" stroke="#23282E" stroke-width="2.4239" stroke-miterlimit="10" stroke-linecap="round" class="svg-elem-66"></path>
<path d="M228 285L200.7 333.7C198.7 336.1 198.8 339.6 200.9 341.9L228 375.6" stroke="#23282E" stroke-width="2.4239" stroke-miterlimit="10" stroke-linecap="round" class="svg-elem-67"></path>
<path d="M448.7 252.5C452.1 234.8 463.2 205.8 469.9 206.7C471.4 206.9 472.9 208.6 473.5 210.5" stroke="#23282E" stroke-width="2.4239" stroke-miterlimit="10" stroke-linecap="round" class="svg-elem-68"></path>
<path d="M466.2 283.2C477.4 273 483.1 249.1 483.1 249.1C488.8 233.8 496.5 224.6 491 223C491 223 484.1 220.3 475.9 244.8" stroke="#23282E" stroke-width="2.4239" stroke-miterlimit="10" stroke-linecap="round" class="svg-elem-69"></path>
<path d="M443 281.5C443 281.5 443.2 286.8 442.2 290.6" stroke="#23282E" stroke-width="2.4239" stroke-miterlimit="10" stroke-linecap="round" class="svg-elem-70"></path>
<path d="M449 254.8C446.1 247 438.8 230.5 432.4 232.9C426.4 235.2 434.5 249.9 440.7 261.8C440.7 261.8 438.1 269.4 443 281.5" stroke="#23282E" stroke-width="2.4239" stroke-miterlimit="10" stroke-linecap="round" class="svg-elem-71"></path>
<path d="M482.8 214C482.8 214 484 209.8 480.5 208.4C477.2 207.2 473.3 211.7 473.3 211.7C473.3 211.7 461.5 227.4 460.5 244.4" stroke="#23282E" stroke-width="2.4239" stroke-miterlimit="10" stroke-linecap="round" class="svg-elem-72"></path>
<path d="M488.7 223.3C491.9 219.3 493.4 213 491.4 211.6C486.9 208.5 483.2 213.8 481.7 215.8C477.8 221.1 470.7 231.4 468.9 244.5" stroke="#23282E" stroke-width="2.4239" stroke-miterlimit="10" stroke-linecap="round" class="svg-elem-73"></path>
<path d="M460.1 273.4C460.1 273.4 456.3 268.2 462.9 261.5" stroke="#23282E" stroke-width="2.4239" stroke-miterlimit="10" stroke-linecap="round" class="svg-elem-74"></path>
<path d="M466.5 283.1C465.6 286.6 464.9 289.3 466.1 291.3" stroke="#23282E" stroke-width="2.0857" stroke-miterlimit="10" stroke-linecap="round" class="svg-elem-75"></path>
<path d="M337.7 224.9C355.5 225.3 370 239.4 370.7 257.3C372.6 305.7 368.8 381.5 397.5 387C408.8 389.2 434.8 359.9 436.2 299.7C428.2 298.7 426.2 290.6 438 290.7C450.2 290.8 474.8 289.9 474.8 296.2C474.8 299.3 468.8 300.5 468.8 300.5C468.3 332.7 447.1 421.4 399.6 421.4C361.1 417.2 349.4 382.8 344.4 348.7" stroke="#23282E" stroke-width="2.4239" stroke-miterlimit="10" stroke-linecap="round" class="svg-elem-76"></path>
<path d="M436.1 299.7C436.1 299.7 444.4 300.4 451 300.1" stroke="#23282E" stroke-width="2.4239" stroke-miterlimit="10" stroke-linecap="round" class="svg-elem-77"></path>
<path d="M491.7 251.8C499.7 257.4 507.3 264.7 514.1 274.5" stroke="white" stroke-width="2.4239" stroke-miterlimit="10" stroke-linecap="round" class="svg-elem-78"></path>
<path d="M413.2 239.3C422.8 237.1 439 234.7 456.7 237.7" stroke="white" stroke-width="2.4239" stroke-miterlimit="10" stroke-linecap="round" class="svg-elem-79"></path>
<path d="M480.8 229.8C494.4 235.4 507.8 245.1 519 261.1" stroke="white" stroke-width="2.4239" stroke-miterlimit="10" stroke-linecap="round" class="svg-elem-80"></path>
<path d="M414.3 226.8C420.7 225.1 432.3 222.7 446.1 222.9" stroke="white" stroke-width="2.4239" stroke-miterlimit="10" stroke-linecap="round" class="svg-elem-81"></path>
<path d="M499.5 224.4C507.2 229.9 514.6 237.1 521.2 246.5" stroke="white" stroke-width="2.4239" stroke-miterlimit="10" stroke-linecap="round" class="svg-elem-82"></path>
<path d="M439.7 208.6C449.5 208 461.1 208.6 472.9 211.8" stroke="white" stroke-width="2.4239" stroke-miterlimit="10" stroke-linecap="round" class="svg-elem-83"></path>
<path d="M420.4 211.4C421.7 211.1 423.1 210.8 424.6 210.5" stroke="white" stroke-width="2.4239" stroke-miterlimit="10" stroke-linecap="round" class="svg-elem-84"></path>
</g>
<path d="M196.2 170.8C203.7 172.8 213.7 174.6 223.5 174" stroke="white" stroke-width="3" stroke-miterlimit="10" stroke-linecap="round" class="svg-elem-85"></path>
<path d="M86.9 454C85.3 449.7 83.3999 443.3 86.0999 440.7C91.2999 435.7 109.5 447.8 111.1 445.4C112.8 442.8 97.2 419.2 93.9 423.5C89.1 429.8 103.7 451.9 119.3 425.5" stroke="white" stroke-width="2.4239" stroke-miterlimit="10" stroke-linecap="round" class="svg-elem-86"></path>
<rect x="595" y="52" width="23" height="466" fill="#F7A320"/>
<path d="M613.6 439.5C613.6 477.1 583.1 507.6 545.5 507.6H445" stroke="#23282E" stroke-width="2.4239" stroke-miterlimit="10" stroke-linecap="round" class="svg-elem-8"></path>
<path d="M613.6 285.1V321.7" stroke="#23282E" stroke-width="2.4239" stroke-miterlimit="10" stroke-linecap="round" class="svg-elem-10"></path>
<path d="M613.6 148.8V259.9" stroke="#23282E" stroke-width="2.4239" stroke-miterlimit="10" stroke-linecap="round" class="svg-elem-11"></path>
</svg>
