<svg class="shape-orange-right js-observe" width="483" height="258" viewBox="0 0 483 258" fill="none" xmlns="http://www.w3.org/2000/svg">
<path d="M478.651 41.774C478.651 41.774 379.951 -10.526 332.551 26.074C279.251 67.274 328.951 131.974 272.051 162.774C201.651 200.874 123.151 85.0741 47.5512 134.974C-16.9488 177.574 43.5512 254.474 43.5512 254.474L482.151 257.474L478.651 41.774Z" fill="#F05928" class="svg-elem-1"></path>
<path d="M472.251 38.574C449.551 27.774 372.751 -4.92603 332.651 26.074C279.351 67.274 329.051 131.974 272.151 162.774C201.751 200.874 123.251 85.074 47.6512 134.974C-6.14881 170.474 26.9512 229.774 39.4512 248.574" stroke="white" stroke-width="4" stroke-miterlimit="10" stroke-linecap="round" class="svg-elem-2"></path>
<path d="M11.9512 223.174C-1.14876 198.674 -1.94886 170.374 13.3511 147.274C28.3511 124.674 50.9512 110.574 80.9512 110.774" stroke="white" stroke-width="4" stroke-miterlimit="10" stroke-linecap="round" class="svg-elem-3"></path>
<path d="M226.651 157.674C229.751 158.574 249.951 163.874 269.251 151.374C286.251 140.374 290.751 123.274 291.651 119.574" stroke="white" stroke-width="4" stroke-miterlimit="10" stroke-linecap="round" class="svg-elem-4"></path>
<path d="M305.951 33.2741C308.951 26.5741 314.851 17.8741 326.551 10.9741C343.151 1.1741 359.451 1.67409 365.551 2.27409" stroke="white" stroke-width="4" stroke-miterlimit="10" stroke-linecap="round" class="svg-elem-5"></path>
</svg>

