<svg xmlns="http://www.w3.org/2000/svg" width="1063.207" height="746.01" viewBox="0 0 1063.207 746.01">
  <g id="Group_810" data-name="Group 810" transform="matrix(-0.966, 0.259, -0.259, -0.966, -1085.783, 536.34)">
    <path id="Path_8263" data-name="Path 8263" d="M938.394,70.4S741.239-34.132,646.554,39.069c-106.529,82.361-7.185,211.5-120.853,273.04-140.549,76.093-297.413-155.18-448.5-55.5-128.91,85.045-8.055,238.719-8.055,238.719L945.207,501.3Z" transform="translate(-2068.305 -504.979)" fill="#f15928"/>
    <path id="Path_8264" data-name="Path 8264" d="M925.441,63.986C880.056,42.4,726.646-22.851,646.555,39.069c-106.531,82.361-7.185,211.5-120.855,273.04-140.547,76.093-297.413-155.18-448.5-55.5-107.434,70.878-41.394,189.419-16.407,226.95" transform="translate(-2068.306 -504.979)" fill="none" stroke="#fff" stroke-linecap="round" stroke-width="4"/>
    <path id="Path_8265" data-name="Path 8265" d="M21.884,335.261C-4.306,286.3-5.888,229.77,24.718,183.672c30.017-45.211,75.2-73.314,135.028-72.915" transform="translate(-2084.005 -407.535)" fill="none" stroke="#fff" stroke-linecap="round" stroke-width="4"/>
    <path id="Path_8266" data-name="Path 8266" d="M226.616,195.62c6.222,1.748,46.509,12.33,85.045-12.534,33.954-21.907,42.984-56.127,44.76-63.559" transform="translate(-1859.974 -398.784)" fill="none" stroke="#fff" stroke-linecap="round" stroke-width="4"/>
    <path id="Path_8267" data-name="Path 8267" d="M305.906,64.394c5.968-13.429,17.815-30.674,41.18-44.462,33.2-19.594,65.651-18.5,77.883-17.457" transform="translate(-1780.89 -516.005)" fill="none" stroke="#fff" stroke-linecap="round" stroke-width="4"/>
    <rect id="Rectangle_241" data-name="Rectangle 241" width="962.902" height="514.318" transform="translate(-2086 -518)" fill="none"/>
  </g>
</svg>
