<svg class="shape-orange-left js-observe" width="326" height="500" viewBox="0 0 326 500" fill="none" xmlns="http://www.w3.org/2000/svg">
<path d="M82.5 507.8C97.2 488.1 122.3 448.8 123.2 403.5C124.9 320.7 76.7 299.2 76.7 225.6C76.7 158.8 113.2 100.7 325.7 -6L-23.6 -52.5V505.2H2.47955e-05L82.5 507.8Z" fill="#F05928" class="svg-elem-1"></path>
<path d="M92.6001 493.3C106.5 471.7 122.5 439.5 123.2 403.5C124.9 320.7 76.7001 299.2 76.7001 225.6C76.7001 162.8 109.1 107.5 290.1 12.2" stroke="white" stroke-width="4" stroke-miterlimit="10" stroke-linecap="round" class="svg-elem-2"></path>
<path d="M136.1 84.5C142 79.8 148.4 74.9 155.3 70C155.3 70 175.8 55.4 194.6 44.8" stroke="white" stroke-width="4" stroke-miterlimit="10" stroke-linecap="round" class="svg-elem-3"></path>
<path d="M81.4 305.7C69.6 280.2 57.6 255.9 57.6 218.2C57.6 183.1 67.2 150.3 105.1 111.9" stroke="white" stroke-width="4" stroke-miterlimit="10" stroke-linecap="round" class="svg-elem-4"></path>
<path d="M77.5 486.4C90.3 464.5 103.5 434.2 104.2 400.8C104.3 398 104.3 395.3 104.2 392.7" stroke="white" stroke-width="4" stroke-miterlimit="10" stroke-linecap="round" class="svg-elem-5"></path>
</svg>
