<svg class="shape-quote-orange-top-right js-observe" xmlns="http://www.w3.org/2000/svg" width="1063.20703125" height="746.010009765625" viewBox="0 0 1063.207 746.01">
  <g id="Group_811" data-name="Group 811" transform="matrix(0.966, 0.259, -0.259, 0.966, 133.115, 0)">
    <path id="Path_8263" data-name="Path 8263" d="M920.653,430.895S723.5,535.429,628.813,462.228c-106.529-82.361-7.185-211.5-120.853-273.04-140.549-76.093-297.413,155.18-448.5,55.5C-69.451,159.646,51.4,5.972,51.4,5.972L927.466,0Z" transform="translate(35.435 0)" fill="#f15928" class="svg-elem-1"></path>
    <path id="Path_8264" data-name="Path 8264" d="M907.7,419.57c-45.385,21.584-198.8,86.837-278.887,24.918-106.531-82.361-7.185-211.5-120.855-273.04-140.547-76.093-297.413,155.18-448.5,55.5C-47.974,156.073,18.066,37.531,43.053,0" transform="translate(35.434 17.741)" fill="none" stroke="#fff" stroke-linecap="round" stroke-width="4" class="svg-elem-2"></path>
    <path id="Path_8265" data-name="Path 8265" d="M19.884,0C-6.306,48.958-7.888,105.491,22.718,151.589,52.735,196.8,97.916,224.9,157.746,224.5" transform="translate(3.995 68.593)" fill="none" stroke="#fff" stroke-linecap="round" stroke-width="4" class="svg-elem-3"></path>
    <path id="Path_8266" data-name="Path 8266" d="M0,3.726C6.222,1.978,46.509-8.6,85.045,16.26,119,38.167,128.029,72.387,129.8,79.819" transform="translate(452.642 195.756)" fill="none" stroke="#fff" stroke-linecap="round" stroke-width="4" class="svg-elem-4"></path>
    <path id="Path_8267" data-name="Path 8267" d="M0,0C5.968,13.429,17.815,30.674,41.18,44.462c33.2,19.594,65.651,18.5,77.883,17.457" transform="translate(611.016 447.929)" fill="none" stroke="#fff" stroke-linecap="round" stroke-width="4" class="svg-elem-5"></path>
    <rect id="Rectangle_241" data-name="Rectangle 241" width="962.901" height="514.318" transform="translate(0 0)" fill="none" class="svg-elem-6"></rect>
  </g>
</svg>
