<svg xmlns="http://www.w3.org/2000/svg" width="653.399" height="349.002" viewBox="0 0 653.399 349.002">
  <g id="Group_809" data-name="Group 809" transform="translate(2086 518)">
    <path id="Path_8263" data-name="Path 8263" d="M642.471,51.969S508.687-18.965,444.436,30.707c-72.288,55.888-4.875,143.518-82.007,185.278-95.373,51.635-201.816-105.3-304.341-37.663-87.475,57.709-5.466,161.988-5.466,161.988l594.472,4.053Z" transform="translate(-2079.695 -513.36)" fill="#f15928"/>
    <path id="Path_8264" data-name="Path 8264" d="M633.681,47.616c-30.8-14.646-134.9-58.925-189.245-16.908-72.289,55.888-4.875,143.518-82.009,185.278-95.371,51.635-201.816-105.3-304.34-37.663-72.9,48.1-28.089,128.535-11.133,154" transform="translate(-2079.696 -513.36)" fill="none" stroke="#fff" stroke-linecap="round" stroke-width="4"/>
    <path id="Path_8265" data-name="Path 8265" d="M15.493,263.1c-17.772-33.222-18.845-71.583,1.923-102.864,20.369-30.679,51.027-49.749,91.626-49.478" transform="translate(-2085.289 -478.641)" fill="none" stroke="#fff" stroke-linecap="round" stroke-width="4"/>
    <path id="Path_8266" data-name="Path 8266" d="M226.616,171.162c4.222,1.186,31.56,8.367,57.709-8.505,23.04-14.866,29.168-38.086,30.373-43.13" transform="translate(-2005.465 -475.523)" fill="none" stroke="#fff" stroke-linecap="round" stroke-width="4"/>
    <path id="Path_8267" data-name="Path 8267" d="M305.906,44.339c4.05-9.112,12.089-20.815,27.944-30.171A89.77,89.77,0,0,1,386.7,2.322" transform="translate(-1977.287 -517.289)" fill="none" stroke="#fff" stroke-linecap="round" stroke-width="4"/>
    <rect id="Rectangle_241" data-name="Rectangle 241" width="653.399" height="349.002" transform="translate(-2086 -518)" fill="none"/>
  </g>
</svg>
