<svg class="dec5 js-observe" xmlns="http://www.w3.org/2000/svg" width="45.986000061035156" height="49.981998443603516" viewBox="0 0 45.986 49.982">
  <g id="Group_720" data-name="Group 720" transform="translate(19126.77 351.257)">
    <path id="Path_62" data-name="Path 62" d="M96.252,144.668c-9.4-6.385-26.271,1.594-32.7,13.576-4.479,8.339-5.543,21.68,1.851,27.767,8.632,7.107,25.347,1.487,32.7-9.255,6.9-10.077,6.689-26.285-1.851-32.088" transform="translate(-19185.283 -492.047)" fill="#f7a320" stroke="#707070" stroke-width="3" class="svg-elem-1"></path>
    <path id="Path_65" data-name="Path 65" d="M96.252,144.668c-9.4-6.385-26.271,1.594-32.7,13.576-4.479,8.339-5.543,21.68,1.851,27.767,8.632,7.107,25.347,1.487,32.7-9.255C105.007,166.68,104.793,150.472,96.252,144.668Z" transform="translate(-19185.283 -492.047)" fill="none" stroke="#23282e" stroke-linecap="round" stroke-width="3" class="svg-elem-2"></path>
  </g>
</svg>
