<svg class="dec8 js-observe" xmlns="http://www.w3.org/2000/svg" width="45.25299835205078" height="41.8380012512207" viewBox="0 0 45.253 41.838">
  <g id="Group_76" data-name="Group 76" transform="translate(-6302.028 7576.183)">
    <path id="Path_63" data-name="Path 63" d="M456.049,248.01c-4.08-2.685-3.755-13.214,1.041-19.777,6.224-8.515,21.076-11.856,30.706-4.163,8.608,6.876,9.471,19.715,4.944,27.322-2.124,3.571-6.616,7.974-10.148,7.026-4.5-1.206-2.9-9.867-8.327-12.751-6.246-3.32-13.635,5.355-18.215,2.342" transform="translate(5850.312 -7794.402)" fill="none" stroke="#fff" stroke-width="3" class="svg-elem-1"></path>
    <path id="Path_67" data-name="Path 67" d="M456.049,248.01c-4.08-2.685-3.755-13.214,1.041-19.777,6.224-8.515,21.076-11.856,30.706-4.163,8.608,6.876,9.471,19.715,4.944,27.322-2.124,3.571-6.616,7.974-10.148,7.026-4.5-1.206-2.9-9.867-8.327-12.751C468.018,242.347,460.629,251.023,456.049,248.01Z" transform="translate(5850.312 -7794.402)" fill="none" stroke="#fff" stroke-linecap="round" stroke-width="3" class="svg-elem-2"></path>
  </g>
</svg>
