<svg class="dec9 js-observe" xmlns="http://www.w3.org/2000/svg" width="34.90700149536133" height="37.87699890136719" viewBox="0 0 34.907 37.877">
  <g id="Group_845" data-name="Group 845" transform="translate(19126.768 351.229)">
    <path id="Path_62" data-name="Path 62" d="M86.912,144.086c-6.975-4.739-19.5,1.183-24.276,10.077-3.324,6.19-4.114,16.092,1.374,20.611,6.407,5.276,18.814,1.1,24.276-6.87,5.125-7.48,4.965-19.51-1.374-23.818" transform="translate(-19185.283 -492.047)" fill="#f15928" stroke="#707070" stroke-width="3" class="svg-elem-1"></path>
    <path id="Path_65" data-name="Path 65" d="M86.912,144.086c-6.975-4.739-19.5,1.183-24.276,10.077-3.324,6.19-4.114,16.092,1.374,20.611,6.407,5.276,18.814,1.1,24.276-6.87C93.411,160.424,93.252,148.394,86.912,144.086Z" transform="translate(-19185.283 -492.047)" fill="#f15928" stroke="#23282e" stroke-linecap="round" stroke-width="3" class="svg-elem-2"></path>
  </g>
</svg>
